<svg width="16" height="16" viewBox="0 0 16 16" fill="none" xmlns="http://www.w3.org/2000/svg">
<path d="M3.33529 13.3333C3.33529 14.0686 3.93329 14.6666 4.66862 14.6666H11.3353C12.0706 14.6666 12.6686 14.0686 12.6686 13.3333V5.33331H14.002V3.99998H11.3353V2.66665C11.3353 1.93131 10.7373 1.33331 10.002 1.33331H6.00195C5.26662 1.33331 4.66862 1.93131 4.66862 2.66665V3.99998H2.00195V5.33331H3.33529V13.3333ZM6.00195 2.66665H10.002V3.99998H6.00195V2.66665ZM5.33529 5.33331H11.3353L11.336 13.3333H4.66862V5.33331H5.33529Z" fill="#737373"/>
<path d="M6.00195 6.66669H7.33529V12H6.00195V6.66669ZM8.66862 6.66669H10.002V12H8.66862V6.66669Z" fill="#737373"/>
</svg>
