<svg width="20" height="20" viewBox="0 0 20 20" fill="none" xmlns="http://www.w3.org/2000/svg">
<path d="M10 0C4.486 0 0 4.486 0 10C0 15.514 4.486 20 10 20C15.514 20 20 15.514 20 10C20 4.486 15.514 0 10 0ZM17.931 9H14.899C14.7012 8.04031 14.2264 7.15964 13.5335 6.46686C12.8405 5.77408 11.9597 5.29957 11 5.102V2.069C12.7598 2.29335 14.3953 3.09574 15.6498 4.3502C16.9043 5.60466 17.7066 7.24017 17.931 9ZM10 7C11.654 7 13 8.346 13 10C13 11.654 11.654 13 10 13C8.346 13 7 11.654 7 10C7 8.346 8.346 7 10 7ZM10 18C5.589 18 2 14.411 2 10C2 5.928 5.061 2.564 9 2.069V5.101C7.87158 5.33306 6.85764 5.947 6.12903 6.83936C5.40042 7.73173 5.00168 8.84797 5 10C5 12.757 7.243 15 10 15C11.152 14.9985 12.2682 14.5998 13.1604 13.8711C14.0526 13.1424 14.6663 12.1284 14.898 11H17.93C17.436 14.939 14.072 18 10 18Z"/>
</svg>
