<svg width="72" height="58" viewBox="0 0 72 58" fill="none" xmlns="http://www.w3.org/2000/svg">
<g clip-path="url(#clip0)">
<path d="M27.0804 33.6563H33.6395L36.1313 30.2818H29.5722L27.0804 33.6563ZM0.486328 31.6115V32.3266H9.62665L10.1518 31.6115H0.486328ZM19.8061 30.2818C18.834 30.2818 19.1357 29.8795 19.2921 29.6672C19.605 29.2426 20.1414 28.5051 20.4542 28.0917C20.7671 27.6782 20.7671 27.4324 20.1414 27.4324H14.4426L9.85013 33.6675H21.0353C24.7339 33.6675 26.7899 31.1534 27.4268 30.2818H19.8061ZM55.2836 29.5108L59.6749 23.5439H52.7247L48.3333 29.5108H55.2836ZM11.1351 30.2818H0.486328V30.9969H10.61L11.1351 30.2818ZM23.5383 27.3095C23.2254 27.7341 22.7002 28.4716 22.3873 28.8962C22.2309 29.1197 21.9292 29.5108 22.9013 29.5108H27.9967C27.9967 29.5108 28.8124 28.3934 29.5052 27.4548C30.4438 26.1809 29.5834 23.5439 26.2424 23.5439H13.0682L10.7887 26.6502H23.2366C23.8623 26.6502 23.8511 26.8961 23.5383 27.3095ZM0.486328 33.6563H8.65451L9.17969 32.9412H0.486328V33.6563ZM36.5783 33.6563H43.1374L45.6292 30.2818H39.0701C39.0589 30.2818 36.5783 33.6563 36.5783 33.6563ZM61.3846 33.6675H71.9998V32.9524H61.9097L61.3846 33.6675ZM63.8764 30.2818L63.3512 30.9969H71.9998V30.2818H63.8764ZM62.3679 32.3266H71.9998V31.6115H62.893L62.3679 32.3266ZM44.0202 23.5439L41.506 26.9631H38.5784L41.0926 23.5439H34.5335L30.1421 29.5108H46.1879L50.5793 23.5439H44.0202ZM47.7635 30.2818C47.7635 30.2818 47.283 30.941 47.0483 31.2539C46.2215 32.3713 46.9478 33.6675 49.6407 33.6675H60.1778L62.6696 30.2818H47.7635Z" fill="#B3B3B3"/>
</g>
<defs>
<clipPath id="clip0">
<rect width="71.5135" height="57.2108" fill="white" transform="translate(0.486328)"/>
</clipPath>
</defs>
</svg>
