<svg width="200" height="160" viewBox="0 0 200 160" fill="none" xmlns="http://www.w3.org/2000/svg">
<path fill-rule="evenodd" clip-rule="evenodd" d="M44.7996 101.6C44.7996 104.693 47.3068 107.2 50.3996 107.2H167.2C170.292 107.2 172.8 104.693 172.8 101.6C172.8 98.5072 170.292 96 167.2 96H162.4C159.307 96 156.8 93.4928 156.8 90.4C156.8 87.3072 159.307 84.8 162.4 84.8H177.6C180.692 84.8 183.2 82.2928 183.2 79.2C183.2 76.1072 180.692 73.6 177.6 73.6H160C163.092 73.6 165.6 71.0928 165.6 68C165.6 64.9072 163.092 62.4 160 62.4H108.8C111.892 62.4 114.4 59.8928 114.4 56.8C114.4 53.7072 111.892 51.2 108.8 51.2H63.1996C60.1068 51.2 57.5996 53.7072 57.5996 56.8C57.5996 59.8928 60.1068 62.4 63.1996 62.4H31.1996C28.1068 62.4 25.5996 64.9072 25.5996 68C25.5996 71.0928 28.1068 73.6 31.1996 73.6H51.1996C54.2924 73.6 56.7996 76.1072 56.7996 79.2C56.7996 82.2928 54.2924 84.8 51.1996 84.8H19.1996C16.1068 84.8 13.5996 87.3072 13.5996 90.4C13.5996 93.4928 16.1068 96 19.1996 96H50.3996C47.3068 96 44.7996 98.5072 44.7996 101.6ZM186.4 101.6C186.4 104.693 183.892 107.2 180.8 107.2C177.707 107.2 175.2 104.693 175.2 101.6C175.2 98.5072 177.707 96 180.8 96C183.892 96 186.4 98.5072 186.4 101.6Z" fill="#F3F3F3"/>
<path fill-rule="evenodd" clip-rule="evenodd" d="M125.498 113.695C127.929 112.131 130.09 110.18 131.496 108.604L125.498 113.695ZM133.764 105.986C134.927 104.562 135.972 103.073 136.9 101.531C138.94 98.1403 140.411 94.4975 141.309 90.7417C142.218 86.9433 142.542 83.0294 142.279 79.1441C142.05 75.7537 141.373 72.385 140.248 69.1338C139.132 65.9082 137.574 62.7981 135.574 59.897C134.382 58.1683 133.032 56.5138 131.525 54.9533C129.313 52.6622 126.886 50.7035 124.307 49.0784C121.537 47.3323 118.591 45.9714 115.548 44.997C111.737 43.7768 107.772 43.163 103.807 43.1586C100.722 43.1551 97.6369 43.5205 94.623 44.2562C91.2299 45.0844 87.9274 46.3819 84.8178 48.1506C82.0843 49.7054 79.5 51.6244 77.1344 53.9089C74.1615 56.7797 71.7535 60.0159 69.9124 63.4793C68.1098 66.8702 66.8508 70.4789 66.1372 74.1757C65.402 77.9844 65.2459 81.8867 65.6709 85.7409C66.2219 90.7364 67.7492 95.651 70.2578 100.176C71.863 103.071 73.87 105.807 76.28 108.303C80.1059 112.265 84.5726 115.233 89.3566 117.2C95.1744 119.593 101.461 120.507 107.636 119.93C112.818 119.447 117.921 117.913 122.601 115.323" fill="white"/>
<path d="M124.822 112.644C124.241 113.018 124.074 113.791 124.447 114.372C124.821 114.952 125.594 115.12 126.175 114.746L124.822 112.644ZM132.428 109.437C132.888 108.922 132.843 108.131 132.328 107.672C131.813 107.212 131.023 107.257 130.563 107.772L132.428 109.437ZM136.9 101.531L135.829 100.887L136.9 101.531ZM141.309 90.7417L142.525 91.0326L141.309 90.7417ZM142.279 79.1441L143.526 79.0596L142.279 79.1441ZM140.248 69.1338L139.067 69.5425L140.248 69.1338ZM135.574 59.897L134.545 60.6067L135.574 59.897ZM131.525 54.9533L130.626 55.8216L131.525 54.9533ZM124.307 49.0784L124.974 48.0209L124.307 49.0784ZM115.548 44.997L115.167 46.1875L115.548 44.997ZM103.807 43.1586L103.806 44.4086L103.807 43.1586ZM94.623 44.2562L94.9194 45.4705L94.623 44.2562ZM84.8178 48.1506L84.1998 47.0641L84.8178 48.1506ZM77.1344 53.9089L78.0027 54.808L77.1344 53.9089ZM69.9124 63.4793L68.8086 62.8926L69.9124 63.4793ZM66.1372 74.1757L64.9099 73.9388L66.1372 74.1757ZM65.6709 85.7409L64.4285 85.8779L65.6709 85.7409ZM70.2578 100.176L71.3511 99.57L70.2578 100.176ZM76.28 108.303L77.1792 107.435L76.28 108.303ZM89.3566 117.2L88.8811 118.357L89.3566 117.2ZM107.636 119.93L107.52 118.686L107.636 119.93ZM123.206 116.416C123.81 116.082 124.029 115.321 123.694 114.717C123.36 114.113 122.599 113.895 121.995 114.229L123.206 116.416ZM126.175 114.746C128.707 113.117 130.953 111.09 132.428 109.437L130.563 107.772C129.226 109.27 127.15 111.146 124.822 112.644L126.175 114.746ZM134.733 106.777C135.933 105.306 137.013 103.768 137.971 102.175L135.829 100.887C134.932 102.377 133.921 103.818 132.796 105.196L134.733 106.777ZM137.971 102.175C140.078 98.673 141.597 94.9106 142.525 91.0326L140.094 90.4508C139.224 94.0843 137.802 97.6076 135.829 100.887L137.971 102.175ZM142.525 91.0326C143.463 87.1108 143.798 83.0703 143.526 79.0596L141.032 79.2285C141.287 82.9886 140.973 86.7759 140.094 90.4508L142.525 91.0326ZM143.526 79.0596C143.289 75.5599 142.591 72.0821 141.429 68.725L139.067 69.5425C140.155 72.688 140.81 75.9475 141.032 79.2285L143.526 79.0596ZM141.429 68.725C140.277 65.3943 138.668 62.1828 136.603 59.1874L134.545 60.6067C136.48 63.4134 137.987 66.4221 139.067 69.5425L141.429 68.725ZM136.603 59.1874C135.372 57.4026 133.979 55.695 132.424 54.085L130.626 55.8216C132.085 57.3327 133.391 58.9341 134.545 60.6067L136.603 59.1874ZM132.424 54.085C130.142 51.7212 127.637 49.6991 124.974 48.0209L123.641 50.1359C126.135 51.7079 128.484 53.6033 130.626 55.8216L132.424 54.085ZM124.974 48.0209C122.113 46.2179 119.071 44.8125 115.929 43.8066L115.167 46.1875C118.111 47.1302 120.961 48.4468 123.641 50.1359L124.974 48.0209ZM115.929 43.8066C111.994 42.5467 107.901 41.9132 103.809 41.9086L103.806 44.4086C107.643 44.4129 111.479 45.0069 115.167 46.1875L115.929 43.8066ZM103.809 41.9086C100.624 41.905 97.4387 42.2822 94.3265 43.0418L94.9194 45.4705C97.835 44.7588 100.82 44.4052 103.806 44.4086L103.809 41.9086ZM94.3265 43.0418C90.8228 43.8971 87.4118 45.2371 84.1998 47.0641L85.4358 49.2371C88.443 47.5267 91.637 46.2717 94.9194 45.4705L94.3265 43.0418ZM84.1998 47.0641C81.3761 48.6702 78.7076 50.6519 76.266 53.0097L78.0027 54.808C80.2924 52.5969 82.7925 50.7407 85.4358 49.2371L84.1998 47.0641ZM76.266 53.0097C73.1976 55.9728 70.7105 59.3148 68.8086 62.8926L71.0161 64.0661C72.7964 60.7171 75.1254 57.5866 78.0027 54.808L76.266 53.0097ZM68.8086 62.8926C66.9467 66.3951 65.6466 70.1219 64.9099 73.9388L67.3645 74.4126C68.055 70.8358 69.2729 67.3453 71.0161 64.0661L68.8086 62.8926ZM64.9099 73.9388C64.1508 77.871 63.9897 81.8994 64.4285 85.8779L66.9134 85.6039C66.502 81.8741 66.6532 78.0978 67.3645 74.4126L64.9099 73.9388ZM64.4285 85.8779C64.9972 91.0348 66.574 96.1092 69.1646 100.782L71.3511 99.57C68.9244 95.1927 67.4465 90.438 66.9134 85.6039L64.4285 85.8779ZM69.1646 100.782C70.8223 103.772 72.8943 106.597 75.3808 109.171L77.1792 107.435C74.8457 105.018 72.9038 102.371 71.3511 99.57L69.1646 100.782ZM75.3808 109.171C79.3288 113.26 83.9405 116.324 88.8811 118.357L89.8321 116.044C85.2047 114.141 80.883 111.27 77.1792 107.435L75.3808 109.171ZM88.8811 118.357C94.8881 120.827 101.378 121.77 107.752 121.175L107.52 118.686C101.544 119.244 95.4606 118.359 89.8321 116.044L88.8811 118.357ZM107.752 121.175C113.102 120.675 118.372 119.092 123.206 116.416L121.995 114.229C117.47 116.734 112.534 118.218 107.52 118.686L107.752 121.175Z" fill="#B3B3B3"/>
<path d="M141.2 36V40.8" stroke="#D9D9D9" stroke-width="2.5" stroke-linecap="round" stroke-linejoin="round"/>
<path d="M141.2 47.2V52" stroke="#D9D9D9" stroke-width="2.5" stroke-linecap="round" stroke-linejoin="round"/>
<path d="M133.2 44H138" stroke="#D9D9D9" stroke-width="2.5" stroke-linecap="round" stroke-linejoin="round"/>
<path d="M144.4 44H149.2" stroke="#D9D9D9" stroke-width="2.5" stroke-linecap="round" stroke-linejoin="round"/>
<path d="M74.8004 118.4V121.6" stroke="#D9D9D9" stroke-width="2.5" stroke-linecap="round" stroke-linejoin="round"/>
<path d="M74.8004 128V131.2" stroke="#D9D9D9" stroke-width="2.5" stroke-linecap="round" stroke-linejoin="round"/>
<path d="M68.4004 124.8H71.6004" stroke="#D9D9D9" stroke-width="2.5" stroke-linecap="round" stroke-linejoin="round"/>
<path d="M78 124.8H81.2" stroke="#D9D9D9" stroke-width="2.5" stroke-linecap="round" stroke-linejoin="round"/>
<path fill-rule="evenodd" clip-rule="evenodd" d="M92.1458 50.1608C90.5147 50.7727 88.9215 51.5162 87.3823 52.3917C84.9905 53.7522 82.7292 55.4313 80.6593 57.4302C79.8108 58.2496 79.0149 59.103 78.2716 59.9862M75.9717 63.0613C75.3807 63.9544 74.8368 64.8699 74.34 65.8044C73.9732 66.4945 73.632 67.195 73.3166 67.9043" fill="white"/>
<path d="M92.5848 51.3311C93.2312 51.0887 93.5586 50.3681 93.3161 49.7217C93.0736 49.0754 92.3531 48.748 91.7067 48.9904L92.5848 51.3311ZM87.3823 52.3917L88.0004 53.4783L87.3823 52.3917ZM80.6593 57.4302L79.791 56.531L80.6593 57.4302ZM77.3152 59.1814C76.8707 59.7096 76.9386 60.4981 77.4668 60.9426C77.995 61.3871 78.7835 61.3193 79.228 60.7911L77.3152 59.1814ZM77.0141 63.7511C77.3951 63.1754 77.2372 62.3999 76.6615 62.0189C76.0858 61.6379 75.3103 61.7958 74.9293 62.3715L77.0141 63.7511ZM74.34 65.8044L75.4438 66.3911L74.34 65.8044ZM72.1745 67.3965C71.894 68.0273 72.178 68.766 72.8088 69.0465C73.4396 69.327 74.1784 69.043 74.4588 68.4122L72.1745 67.3965ZM91.7067 48.9904C90.0145 49.6253 88.3614 50.3968 86.7643 51.3052L88.0004 53.4783C89.4816 52.6357 91.015 51.9201 92.5848 51.3311L91.7067 48.9904ZM86.7643 51.3052C84.2823 52.717 81.9368 54.4588 79.791 56.531L81.5276 58.3294C83.5217 56.4038 85.6987 54.7874 88.0004 53.4783L86.7643 51.3052ZM79.791 56.531C78.9115 57.3804 78.0862 58.2653 77.3152 59.1814L79.228 60.7911C79.9436 59.9407 80.7102 59.1188 81.5276 58.3294L79.791 56.531ZM74.9293 62.3715C74.3161 63.2981 73.7517 64.2481 73.2363 65.2176L75.4438 66.3911C75.9218 65.4918 76.4453 64.6107 77.0141 63.7511L74.9293 62.3715ZM73.2363 65.2176C72.8556 65.9337 72.5017 66.6605 72.1745 67.3965L74.4588 68.4122C74.7624 67.7295 75.0907 67.0553 75.4438 66.3911L73.2363 65.2176Z" fill="#D9D9D9"/>
<path d="M88.7841 81.0948C87.6191 80.0454 85.8119 80.1259 84.7477 81.2748C83.6834 82.4236 83.7651 84.2057 84.9302 85.2552L98.3768 97.3678C100.008 98.8371 102.538 98.7243 104.028 97.1159C104.09 97.0476 104.09 97.0476 104.15 96.9774L123.34 74.2188C124.349 73.0223 124.183 71.2459 122.969 70.2511C121.756 69.2563 119.955 69.4198 118.946 70.6162L100.905 92.0129L88.7841 81.0948Z" fill="#F3F3F3" stroke="#B3B3B3" stroke-width="2.5"/>
</svg>
