<svg width="167" height="91" viewBox="0 0 167 91" fill="none" xmlns="http://www.w3.org/2000/svg">
<path fill-rule="evenodd" clip-rule="evenodd" d="M46 83H129C132.866 83 136 79.866 136 76C136 72.134 132.866 69 129 69C129 69 123 65.866 123 62C123 58.134 126.952 55 131.826 55H142C145.866 55 149 51.866 149 48C149 44.134 145.866 41 142 41H120C123.866 41 127 37.866 127 34C127 30.134 123.866 27 120 27H160C163.866 27 167 23.866 167 20C167 16.134 163.866 13 160 13H62C58.134 13 55 16.134 55 20C55 23.866 58.134 27 62 27H22C18.134 27 15 30.134 15 34C15 37.866 18.134 41 22 41H47C50.866 41 54 44.134 54 48C54 51.866 50.866 55 47 55H7C3.13401 55 0 58.134 0 62C0 65.866 3.13401 69 7 69H46C42.134 69 39 72.134 39 76C39 79.866 42.134 83 46 83ZM153 48C153 51.866 156.134 55 160 55C163.866 55 167 51.866 167 48C167 44.134 163.866 41 160 41C156.134 41 153 44.134 153 48Z" fill="#F3F3F3"/>
<path fill-rule="evenodd" clip-rule="evenodd" d="M71.1186 61.3066C71.0404 61.8599 71 62.4252 71 63C71 69.6274 76.3726 75 83 75C89.6274 75 95 69.6274 95 63C95 62.4252 94.9596 61.8599 94.8815 61.3066H124V88C124 89.6569 122.657 91 121 91H45C43.3431 91 42 89.6569 42 88V61.3066H71.1186Z" fill="white"/>
<path fill-rule="evenodd" clip-rule="evenodd" d="M96 61C96 68.1797 90.1797 74 83 74C75.8203 74 70 68.1797 70 61C70 60.7674 70.0061 60.5362 70.0182 60.3066H42L51.5604 32.0389C51.9726 30.8202 53.1159 30 54.4023 30L111.598 30C112.884 30 114.027 30.8202 114.44 32.0389L124 60.3066H95.9818C95.9939 60.5362 96 60.7674 96 61Z" fill="white"/>
<path fill-rule="evenodd" clip-rule="evenodd" d="M94.0976 61.9545C94.0976 67.5025 89.129 73 83 73C76.871 73 71.9024 67.5025 71.9024 61.9545C71.9024 61.7748 71.9077 60.5962 71.918 60.4188H51L59.1614 40.5755C59.5132 39.6338 60.4891 39 61.5873 39H104.413C105.511 39 106.487 39.6338 106.839 40.5755L115 60.4188H94.082C94.0923 60.5962 94.0976 61.7748 94.0976 61.9545Z" fill="#F3F3F3"/>
<path d="M52.7446 32.4393C52.985 31.7285 53.6519 31.25 54.4023 31.25H111.598C112.348 31.25 113.015 31.7285 113.255 32.4393L122.75 60.5123V87C122.75 87.9665 121.966 88.75 121 88.75H45C44.0335 88.75 43.25 87.9665 43.25 87V60.5123L52.7446 32.4393Z" stroke="#B3B3B3" stroke-width="2.5" stroke-linejoin="round"/>
<path d="M56.0005 58.75H57.2505C57.2505 58.0596 56.6908 57.5 56.0005 57.5V58.75ZM56.0005 61.25V62.5C56.6908 62.5 57.2505 61.9404 57.2505 61.25H56.0005ZM56.0006 61.25L54.7506 61.2501C54.7506 61.9404 55.3102 62.5 56.0006 62.5V61.25ZM69.2632 61.3307L69.8301 60.2167L69.8301 60.2167L69.2632 61.3307ZM69.2979 61.3575L68.1893 61.9351L68.1894 61.9354L69.2979 61.3575ZM69.299 61.3597L68.2109 61.9749L68.2109 61.9749L69.299 61.3597ZM69.3534 61.5656L68.1144 61.7311V61.7311L69.3534 61.5656ZM96.4422 61.5655L97.6811 61.7311L97.6812 61.7311L96.4422 61.5655ZM96.4965 61.3597L97.5846 61.9749L97.5856 61.9731L96.4965 61.3597ZM96.4977 61.3575L95.3893 60.7795L95.3882 60.7816L96.4977 61.3575ZM96.5323 61.3307L97.0992 62.4448L97.0992 62.4448L96.5323 61.3307ZM94.3203 60.1293L93.2321 59.514L93.2321 59.514L94.3203 60.1293ZM93.9237 61.9541L95.1737 61.9494V61.9494L93.9237 61.9541ZM71.8718 61.9541L73.1218 61.9587V61.9587L71.8718 61.9541ZM71.4753 60.1293L72.5634 59.514V59.514L71.4753 60.1293ZM56.0006 58.75V57.5C55.3102 57.5 54.7506 58.0596 54.7506 58.7499L56.0006 58.75ZM48.5742 57.5C47.1935 57.5 46.0742 58.6193 46.0742 60H48.5742V57.5ZM51.0005 57.5H48.5742V60H51.0005V57.5ZM53.5005 60C53.5005 58.6193 52.3812 57.5 51.0005 57.5V60H53.5005ZM51.0005 62.5C52.3812 62.5 53.5005 61.3807 53.5005 60H51.0005V62.5ZM48.5742 62.5H51.0005V60H48.5742V62.5ZM46.0742 60C46.0742 61.3807 47.1935 62.5 48.5742 62.5V60H46.0742ZM56.0005 57.5C54.6198 57.5 53.5005 58.6193 53.5005 60H56.0005V57.5ZM57.2505 60V58.75H54.7505V60H57.2505ZM57.2505 61.25V60H54.7505V61.25H57.2505ZM53.5005 60C53.5005 61.3807 54.6198 62.5 56.0005 62.5V60H53.5005ZM54.7505 60.0001L54.7506 61.2501L57.2506 61.2499L57.2505 59.9999L54.7505 60.0001ZM56.0006 62.5H56.0008V60H56.0006V62.5ZM56.0008 62.5H56.0011V60H56.0008V62.5ZM56.0011 62.5H56.0016V60H56.0011V62.5ZM56.0016 62.5H56.0022V60H56.0016V62.5ZM56.0022 62.5H56.0029V60H56.0022V62.5ZM56.0029 62.5H56.0038V60H56.0029V62.5ZM56.0038 62.5H56.0048V60H56.0038V62.5ZM56.0048 62.5H56.0059V60H56.0048V62.5ZM56.0059 62.5H56.0072V60H56.0059V62.5ZM56.0072 62.5H56.0086V60H56.0072V62.5ZM56.0086 62.5H56.0102V60H56.0086V62.5ZM56.0102 62.5H56.0118V60H56.0102V62.5ZM56.0118 62.5H56.0136V60H56.0118V62.5ZM56.0136 62.5H56.0156V60H56.0136V62.5ZM56.0156 62.5H56.0176V60H56.0156V62.5ZM56.0176 62.5H56.0198V60H56.0176V62.5ZM56.0198 62.5H56.0222V60H56.0198V62.5ZM56.0222 62.5H56.0246V60H56.0222V62.5ZM56.0246 62.5H56.0272V60H56.0246V62.5ZM56.0272 62.5H56.0299V60H56.0272V62.5ZM56.0299 62.5H56.0328V60H56.0299V62.5ZM56.0328 62.5H56.0358V60H56.0328V62.5ZM56.0358 62.5H56.0389V60H56.0358V62.5ZM56.0389 62.5H56.0421V60H56.0389V62.5ZM56.0421 62.5H56.0455V60H56.0421V62.5ZM56.0455 62.5H56.049V60H56.0455V62.5ZM56.049 62.5H56.0527V60H56.049V62.5ZM56.0527 62.5H56.0564V60H56.0527V62.5ZM56.0564 62.5H56.0603V60H56.0564V62.5ZM56.0603 62.5H56.0643V60H56.0603V62.5ZM56.0643 62.5H56.0685V60H56.0643V62.5ZM56.0685 62.5H56.0727V60H56.0685V62.5ZM56.0727 62.5H56.0772V60H56.0727V62.5ZM56.0772 62.5H56.0817V60H56.0772V62.5ZM56.0817 62.5H56.0863V60H56.0817V62.5ZM56.0863 62.5H56.0911V60H56.0863V62.5ZM56.0911 62.5H56.096V60H56.0911V62.5ZM56.096 62.5H56.1011V60H56.096V62.5ZM56.1011 62.5H56.1062V60H56.1011V62.5ZM56.1062 62.5H56.1115V60H56.1062V62.5ZM56.1115 62.5H56.1169V60H56.1115V62.5ZM56.1169 62.5H56.1225V60H56.1169V62.5ZM56.1225 62.5H56.1282V60H56.1225V62.5ZM56.1282 62.5H56.134V60H56.1282V62.5ZM56.134 62.5H56.1399V60H56.134V62.5ZM56.1399 62.5H56.1459V60H56.1399V62.5ZM56.1459 62.5H56.1521V60H56.1459V62.5ZM56.1521 62.5H56.1584V60H56.1521V62.5ZM56.1584 62.5H56.1648V60H56.1584V62.5ZM56.1648 62.5H56.1713V60H56.1648V62.5ZM56.1713 62.5H56.178V60H56.1713V62.5ZM56.178 62.5H56.1848V60H56.178V62.5ZM56.1848 62.5H56.1917V60H56.1848V62.5ZM56.1917 62.5H56.1987V60H56.1917V62.5ZM56.1987 62.5H56.2059V60H56.1987V62.5ZM56.2059 62.5H56.2132V60H56.2059V62.5ZM56.2132 62.5H56.2206V60H56.2132V62.5ZM56.2206 62.5H56.2281V60H56.2206V62.5ZM56.2281 62.5H56.2358V60H56.2281V62.5ZM56.2358 62.5H56.2435V60H56.2358V62.5ZM56.2435 62.5H56.2514V60H56.2435V62.5ZM56.2514 62.5H56.2594V60H56.2514V62.5ZM56.2594 62.5H56.2676V60H56.2594V62.5ZM56.2676 62.5H56.2758V60H56.2676V62.5ZM56.2758 62.5H56.2842V60H56.2758V62.5ZM56.2842 62.5H56.2927V60H56.2842V62.5ZM56.2927 62.5H56.3013V60H56.2927V62.5ZM56.3013 62.5H56.3101V60H56.3013V62.5ZM56.3101 62.5H56.3189V60H56.3101V62.5ZM56.3189 62.5H56.3279V60H56.3189V62.5ZM56.3279 62.5H56.337V60H56.3279V62.5ZM56.337 62.5H56.3462V60H56.337V62.5ZM56.3462 62.5H56.3555V60H56.3462V62.5ZM56.3555 62.5H56.365V60H56.3555V62.5ZM56.365 62.5H56.3746V60H56.365V62.5ZM56.3746 62.5H56.3842V60H56.3746V62.5ZM56.3842 62.5H56.394V60H56.3842V62.5ZM56.394 62.5H56.404V60H56.394V62.5ZM56.404 62.5H56.414V60H56.404V62.5ZM56.414 62.5H56.4242V60H56.414V62.5ZM56.4242 62.5H56.4345V60H56.4242V62.5ZM56.4345 62.5H56.4448V60H56.4345V62.5ZM56.4448 62.5H56.4554V60H56.4448V62.5ZM56.4554 62.5H56.466V60H56.4554V62.5ZM56.466 62.5H56.4767V60H56.466V62.5ZM56.4767 62.5H56.4876V60H56.4767V62.5ZM56.4876 62.5H56.4986V60H56.4876V62.5ZM56.4986 62.5H56.5097V60H56.4986V62.5ZM56.5097 62.5H56.5209V60H56.5097V62.5ZM56.5209 62.5H56.5322V60H56.5209V62.5ZM56.5322 62.5H56.5436V60H56.5322V62.5ZM56.5436 62.5H56.5552V60H56.5436V62.5ZM56.5552 62.5H56.5668V60H56.5552V62.5ZM56.5668 62.5H56.5786V60H56.5668V62.5ZM56.5786 62.5H56.5905V60H56.5786V62.5ZM56.5905 62.5H56.6025V60H56.5905V62.5ZM56.6025 62.5H56.6146V60H56.6025V62.5ZM56.6146 62.5H56.6269V60H56.6146V62.5ZM56.6269 62.5H56.6392V60H56.6269V62.5ZM56.6392 62.5H56.6517V60H56.6392V62.5ZM56.6517 62.5H56.6643V60H56.6517V62.5ZM56.6643 62.5H56.6769V60H56.6643V62.5ZM56.6769 62.5H56.6897V60H56.6769V62.5ZM56.6897 62.5H56.7026V60H56.6897V62.5ZM56.7026 62.5H56.7157V60H56.7026V62.5ZM56.7157 62.5H56.7288V60H56.7157V62.5ZM56.7288 62.5H56.742V60H56.7288V62.5ZM56.742 62.5H56.7554V60H56.742V62.5ZM56.7554 62.5H56.7689V60H56.7554V62.5ZM56.7689 62.5H56.7824V60H56.7689V62.5ZM56.7824 62.5H56.7961V60H56.7824V62.5ZM56.7961 62.5H56.8099V60H56.7961V62.5ZM56.8099 62.5H56.8238V60H56.8099V62.5ZM56.8238 62.5H56.8379V60H56.8238V62.5ZM56.8379 62.5H56.852V60H56.8379V62.5ZM56.852 62.5H56.8662V60H56.852V62.5ZM56.8662 62.5H56.8806V60H56.8662V62.5ZM56.8806 62.5H56.895V60H56.8806V62.5ZM56.895 62.5H56.9096V60H56.895V62.5ZM56.9096 62.5H56.9243V60H56.9096V62.5ZM56.9243 62.5H56.939V60H56.9243V62.5ZM56.939 62.5H56.9539V60H56.939V62.5ZM56.9539 62.5H56.9689V60H56.9539V62.5ZM56.9689 62.5H56.984V60H56.9689V62.5ZM56.984 62.5H56.9993V60H56.984V62.5ZM56.9993 62.5H57.0146V60H56.9993V62.5ZM57.0146 62.5H57.03V60H57.0146V62.5ZM57.03 62.5H57.0455V60H57.03V62.5ZM57.0455 62.5H57.0612V60H57.0455V62.5ZM57.0612 62.5H57.0769V60H57.0612V62.5ZM57.0769 62.5H57.0928V60H57.0769V62.5ZM57.0928 62.5H57.1087V60H57.0928V62.5ZM57.1087 62.5H57.1248V60H57.1087V62.5ZM57.1248 62.5H57.141V60H57.1248V62.5ZM57.141 62.5H57.1572V60H57.141V62.5ZM57.1572 62.5H57.1736V60H57.1572V62.5ZM57.1736 62.5H57.1901V60H57.1736V62.5ZM57.1901 62.5H57.2067V60H57.1901V62.5ZM57.2067 62.5H57.2234V60H57.2067V62.5ZM57.2234 62.5H57.2402V60H57.2234V62.5ZM57.2402 62.5H57.2571V60H57.2402V62.5ZM57.2571 62.5H57.2741V60H57.2571V62.5ZM57.2741 62.5H57.2912V60H57.2741V62.5ZM57.2912 62.5H57.3084V60H57.2912V62.5ZM57.3084 62.5H57.3257V60H57.3084V62.5ZM57.3257 62.5H57.3431V60H57.3257V62.5ZM57.3431 62.5H57.3606V60H57.3431V62.5ZM57.3606 62.5H57.3783V60H57.3606V62.5ZM57.3783 62.5H57.396V60H57.3783V62.5ZM57.396 62.5H57.4138V60H57.396V62.5ZM57.4138 62.5H57.4317V60H57.4138V62.5ZM57.4317 62.5H57.4498V60H57.4317V62.5ZM57.4498 62.5H57.4679V60H57.4498V62.5ZM57.4679 62.5H57.4861V60H57.4679V62.5ZM57.4861 62.5H57.5044V60H57.4861V62.5ZM57.5044 62.5H57.5229V60H57.5044V62.5ZM57.5229 62.5H57.5414V60H57.5229V62.5ZM57.5414 62.5H57.56V60H57.5414V62.5ZM57.56 62.5H57.5788V60H57.56V62.5ZM57.5788 62.5H57.5976V60H57.5788V62.5ZM57.5976 62.5H57.6165V60H57.5976V62.5ZM57.6165 62.5H57.6356V60H57.6165V62.5ZM57.6356 62.5H57.6547V60H57.6356V62.5ZM57.6547 62.5H57.6739V60H57.6547V62.5ZM57.6739 62.5H57.6932V60H57.6739V62.5ZM57.6932 62.5H57.7127V60H57.6932V62.5ZM57.7127 62.5H57.7322V60H57.7127V62.5ZM57.7322 62.5H57.7518V60H57.7322V62.5ZM57.7518 62.5H57.7715V60H57.7518V62.5ZM57.7715 62.5H57.7913V60H57.7715V62.5ZM57.7913 62.5H57.8112V60H57.7913V62.5ZM57.8112 62.5H57.8312V60H57.8112V62.5ZM57.8312 62.5H57.8514V60H57.8312V62.5ZM57.8514 62.5H57.8716V60H57.8514V62.5ZM57.8716 62.5H57.8919V60H57.8716V62.5ZM57.8919 62.5H57.9122V60H57.8919V62.5ZM57.9122 62.5H57.9327V60H57.9122V62.5ZM57.9327 62.5H57.9533V60H57.9327V62.5ZM57.9533 62.5H57.974V60H57.9533V62.5ZM57.974 62.5H57.9948V60H57.974V62.5ZM57.9948 62.5H58.0156V60H57.9948V62.5ZM58.0156 62.5H58.0366V60H58.0156V62.5ZM58.0366 62.5H58.0577V60H58.0366V62.5ZM58.0577 62.5H58.0788V60H58.0577V62.5ZM58.0788 62.5H58.1001V60H58.0788V62.5ZM58.1001 62.5H58.1214V60H58.1001V62.5ZM58.1214 62.5H58.1429V60H58.1214V62.5ZM58.1429 62.5H58.1644V60H58.1429V62.5ZM58.1644 62.5H58.186V60H58.1644V62.5ZM58.186 62.5H58.2077V60H58.186V62.5ZM58.2077 62.5H58.2295V60H58.2077V62.5ZM58.2295 62.5H58.2514V60H58.2295V62.5ZM58.2514 62.5H58.2734V60H58.2514V62.5ZM58.2734 62.5H58.2955V60H58.2734V62.5ZM58.2955 62.5H58.3177V60H58.2955V62.5ZM58.3177 62.5H58.3399V60H58.3177V62.5ZM58.3399 62.5H58.3623V60H58.3399V62.5ZM58.3623 62.5H58.3848V60H58.3623V62.5ZM58.3848 62.5H58.4073V60H58.3848V62.5ZM58.4073 62.5H58.4299V60H58.4073V62.5ZM58.4299 62.5H58.4527V60H58.4299V62.5ZM58.4527 62.5H58.4755V60H58.4527V62.5ZM58.4755 62.5H58.4984V60H58.4755V62.5ZM58.4984 62.5H58.5214V60H58.4984V62.5ZM58.5214 62.5H58.5444V60H58.5214V62.5ZM58.5444 62.5H58.5676V60H58.5444V62.5ZM58.5676 62.5H58.5909V60H58.5676V62.5ZM58.5909 62.5H58.6142V60H58.5909V62.5ZM58.6142 62.5H58.6377V60H58.6142V62.5ZM58.6377 62.5H58.6612V60H58.6377V62.5ZM58.6612 62.5H58.6848V60H58.6612V62.5ZM58.6848 62.5H58.7085V60H58.6848V62.5ZM58.7085 62.5H58.7323V60H58.7085V62.5ZM58.7323 62.5H58.7562V60H58.7323V62.5ZM58.7562 62.5H58.7802V60H58.7562V62.5ZM58.7802 62.5H58.8042V60H58.7802V62.5ZM58.8042 62.5H58.8284V60H58.8042V62.5ZM58.8284 62.5H58.8526V60H58.8284V62.5ZM58.8526 62.5H58.8769V60H58.8526V62.5ZM58.8769 62.5H58.9013V60H58.8769V62.5ZM58.9013 62.5H58.9258V60H58.9013V62.5ZM58.9258 62.5H58.9503V60H58.9258V62.5ZM58.9503 62.5H58.975V60H58.9503V62.5ZM58.975 62.5H58.9998V60H58.975V62.5ZM58.9998 62.5H59.0246V60H58.9998V62.5ZM59.0246 62.5H59.0495V60H59.0246V62.5ZM59.0495 62.5H59.0745V60H59.0495V62.5ZM59.0745 62.5H59.0996V60H59.0745V62.5ZM59.0996 62.5H59.1247V60H59.0996V62.5ZM59.1247 62.5H59.15V60H59.1247V62.5ZM59.15 62.5H59.1753V60H59.15V62.5ZM59.1753 62.5H59.2007V60H59.1753V62.5ZM59.2007 62.5H59.2262V60H59.2007V62.5ZM59.2262 62.5H59.2518V60H59.2262V62.5ZM59.2518 62.5H59.2775V60H59.2518V62.5ZM59.2775 62.5H59.3032V60H59.2775V62.5ZM59.3032 62.5H59.3291V60H59.3032V62.5ZM59.3291 62.5H59.355V60H59.3291V62.5ZM59.355 62.5H59.381V60H59.355V62.5ZM59.381 62.5H59.4071V60H59.381V62.5ZM59.4071 62.5H59.4332V60H59.4071V62.5ZM59.4332 62.5H59.4595V60H59.4332V62.5ZM59.4595 62.5H59.4858V60H59.4595V62.5ZM59.4858 62.5H59.5122V60H59.4858V62.5ZM59.5122 62.5H59.5387V60H59.5122V62.5ZM59.5387 62.5H59.5652V60H59.5387V62.5ZM59.5652 62.5H59.5919V60H59.5652V62.5ZM59.5919 62.5H59.6186V60H59.5919V62.5ZM59.6186 62.5H59.6454V60H59.6186V62.5ZM59.6454 62.5H59.6723V60H59.6454V62.5ZM59.6723 62.5H59.6993V60H59.6723V62.5ZM59.6993 62.5H59.7263V60H59.6993V62.5ZM59.7263 62.5H59.7534V60H59.7263V62.5ZM59.7534 62.5H59.7806V60H59.7534V62.5ZM59.7806 62.5H59.8079V60H59.7806V62.5ZM59.8079 62.5H59.8353V60H59.8079V62.5ZM59.8353 62.5H59.8627V60H59.8353V62.5ZM59.8627 62.5H59.8902V60H59.8627V62.5ZM59.8902 62.5H59.9178V60H59.8902V62.5ZM59.9178 62.5H59.9455V60H59.9178V62.5ZM59.9455 62.5H59.9732V60H59.9455V62.5ZM59.9732 62.5H60.0011V60H59.9732V62.5ZM60.0011 62.5H60.029V60H60.0011V62.5ZM60.029 62.5H60.0569V60H60.029V62.5ZM60.0569 62.5H60.085V60H60.0569V62.5ZM60.085 62.5H60.1131V60H60.085V62.5ZM60.1131 62.5H60.1413V60H60.1131V62.5ZM60.1413 62.5H60.1696V60H60.1413V62.5ZM60.1696 62.5H60.198V60H60.1696V62.5ZM60.198 62.5H60.2264V60H60.198V62.5ZM60.2264 62.5H60.2549V60H60.2264V62.5ZM60.2549 62.5H60.2835V60H60.2549V62.5ZM60.2835 62.5H60.3121V60H60.2835V62.5ZM60.3121 62.5H60.3409V60H60.3121V62.5ZM60.3409 62.5H60.3697V60H60.3409V62.5ZM60.3697 62.5H60.3985V60H60.3697V62.5ZM60.3985 62.5H60.4275V60H60.3985V62.5ZM60.4275 62.5H60.4565V60H60.4275V62.5ZM60.4565 62.5H60.4856V60H60.4565V62.5ZM60.4856 62.5H60.5148V60H60.4856V62.5ZM60.5148 62.5H60.544V60H60.5148V62.5ZM60.544 62.5H60.5733V60H60.544V62.5ZM60.5733 62.5H60.6027V60H60.5733V62.5ZM60.6027 62.5H60.6322V60H60.6027V62.5ZM60.6322 62.5H60.6617V60H60.6322V62.5ZM60.6617 62.5H60.6913V60H60.6617V62.5ZM60.6913 62.5H60.721V60H60.6913V62.5ZM60.721 62.5H60.7507V60H60.721V62.5ZM60.7507 62.5H60.7806V60H60.7507V62.5ZM60.7806 62.5H60.8104V60H60.7806V62.5ZM60.8104 62.5H60.8404V60H60.8104V62.5ZM60.8404 62.5H60.8704V60H60.8404V62.5ZM60.8704 62.5H60.9005V60H60.8704V62.5ZM60.9005 62.5H60.9307V60H60.9005V62.5ZM60.9307 62.5H60.9609V60H60.9307V62.5ZM60.9609 62.5H60.9912V60H60.9609V62.5ZM60.9912 62.5H61.0216V60H60.9912V62.5ZM61.0216 62.5H61.0521V60H61.0216V62.5ZM61.0521 62.5H61.0826V60H61.0521V62.5ZM61.0826 62.5H61.1132V60H61.0826V62.5ZM61.1132 62.5H61.1438V60H61.1132V62.5ZM61.1438 62.5H61.1745V60H61.1438V62.5ZM61.1745 62.5H61.2053V60H61.1745V62.5ZM61.2053 62.5H61.2362V60H61.2053V62.5ZM61.2362 62.5H61.2671V60H61.2362V62.5ZM61.2671 62.5H61.2981V60H61.2671V62.5ZM61.2981 62.5H61.3291V60H61.2981V62.5ZM61.3291 62.5H61.3603V60H61.3291V62.5ZM61.3603 62.5H61.3914V60H61.3603V62.5ZM61.3914 62.5H61.4227V60H61.3914V62.5ZM61.4227 62.5H61.454V60H61.4227V62.5ZM61.454 62.5H61.4854V60H61.454V62.5ZM61.4854 62.5H61.5169V60H61.4854V62.5ZM61.5169 62.5H61.5484V60H61.5169V62.5ZM61.5484 62.5H61.58V60H61.5484V62.5ZM61.58 62.5H61.6116V60H61.58V62.5ZM61.6116 62.5H61.6433V60H61.6116V62.5ZM61.6433 62.5H61.6751V60H61.6433V62.5ZM61.6751 62.5H61.7069V60H61.6751V62.5ZM61.7069 62.5H61.7389V60H61.7069V62.5ZM61.7389 62.5H61.7708V60H61.7389V62.5ZM61.7708 62.5H61.8029V60H61.7708V62.5ZM61.8029 62.5H61.835V60H61.8029V62.5ZM61.835 62.5H61.8671V60H61.835V62.5ZM61.8671 62.5H61.8993V60H61.8671V62.5ZM61.8993 62.5H61.9316V60H61.8993V62.5ZM61.9316 62.5H61.964V60H61.9316V62.5ZM61.964 62.5H61.9964V60H61.964V62.5ZM61.9964 62.5H62.0289V60H61.9964V62.5ZM62.0289 62.5H62.0614V60H62.0289V62.5ZM62.0614 62.5H62.094V60H62.0614V62.5ZM62.094 62.5H62.1266V60H62.094V62.5ZM62.1266 62.5H62.1594V60H62.1266V62.5ZM62.1594 62.5H62.1921V60H62.1594V62.5ZM62.1921 62.5H62.225V60H62.1921V62.5ZM62.225 62.5H62.2579V60H62.225V62.5ZM62.2579 62.5H62.2908V60H62.2579V62.5ZM62.2908 62.5H62.3239V60H62.2908V62.5ZM62.3239 62.5H62.3569V60H62.3239V62.5ZM62.3569 62.5H62.3901V60H62.3569V62.5ZM62.3901 62.5H62.4233V60H62.3901V62.5ZM62.4233 62.5H62.4565V60H62.4233V62.5ZM62.4565 62.5H62.4899V60H62.4565V62.5ZM62.4899 62.5H62.5232V60H62.4899V62.5ZM62.5232 62.5H62.5567V60H62.5232V62.5ZM62.5567 62.5H62.5902V60H62.5567V62.5ZM62.5902 62.5H62.6237V60H62.5902V62.5ZM62.6237 62.5H62.6573V60H62.6237V62.5ZM62.6573 62.5H62.691V60H62.6573V62.5ZM62.691 62.5H62.7247V60H62.691V62.5ZM62.7247 62.5H62.7585V60H62.7247V62.5ZM62.7585 62.5H62.7923V60H62.7585V62.5ZM62.7923 62.5H62.8262V60H62.7923V62.5ZM62.8262 62.5H62.8602V60H62.8262V62.5ZM62.8602 62.5H62.8942V60H62.8602V62.5ZM62.8942 62.5H62.9283V60H62.8942V62.5ZM62.9283 62.5H62.9624V60H62.9283V62.5ZM62.9624 62.5H62.9965V60H62.9624V62.5ZM62.9965 62.5H63.0308V60H62.9965V62.5ZM63.0308 62.5H63.0651V60H63.0308V62.5ZM63.0651 62.5H63.0994V60H63.0651V62.5ZM63.0994 62.5H63.1338V60H63.0994V62.5ZM63.1338 62.5H63.1682V60H63.1338V62.5ZM63.1682 62.5H63.2028V60H63.1682V62.5ZM63.2028 62.5H63.2373V60H63.2028V62.5ZM63.2373 62.5H63.2719V60H63.2373V62.5ZM63.2719 62.5H63.3066V60H63.2719V62.5ZM63.3066 62.5H63.3413V60H63.3066V62.5ZM63.3413 62.5H63.3761V60H63.3413V62.5ZM63.3761 62.5H63.4109V60H63.3761V62.5ZM63.4109 62.5H63.4458V60H63.4109V62.5ZM63.4458 62.5H63.4807V60H63.4458V62.5ZM63.4807 62.5H63.5157V60H63.4807V62.5ZM63.5157 62.5H63.5507V60H63.5157V62.5ZM63.5507 62.5H63.5858V60H63.5507V62.5ZM63.5858 62.5H63.621V60H63.5858V62.5ZM63.621 62.5H63.6562V60H63.621V62.5ZM63.6562 62.5H63.6914V60H63.6562V62.5ZM63.6914 62.5H63.7267V60H63.6914V62.5ZM63.7267 62.5H63.762V60H63.7267V62.5ZM63.762 62.5H63.7974V60H63.762V62.5ZM63.7974 62.5H63.8329V60H63.7974V62.5ZM63.8329 62.5H63.8684V60H63.8329V62.5ZM63.8684 62.5H63.9039V60H63.8684V62.5ZM63.9039 62.5H63.9395V60H63.9039V62.5ZM63.9395 62.5H63.9751V60H63.9395V62.5ZM63.9751 62.5H64.0108V60H63.9751V62.5ZM64.0108 62.5H64.0466V60H64.0108V62.5ZM64.0466 62.5H64.0824V60H64.0466V62.5ZM64.0824 62.5H64.1182V60H64.0824V62.5ZM64.1182 62.5H64.1541V60H64.1182V62.5ZM64.1541 62.5H64.19V60H64.1541V62.5ZM64.19 62.5H64.226V60H64.19V62.5ZM64.226 62.5H64.262V60H64.226V62.5ZM64.262 62.5H64.2981V60H64.262V62.5ZM64.2981 62.5H64.3342V60H64.2981V62.5ZM64.3342 62.5H64.3704V60H64.3342V62.5ZM64.3704 62.5H64.4066V60H64.3704V62.5ZM64.4066 62.5H64.4429V60H64.4066V62.5ZM64.4429 62.5H64.4792V60H64.4429V62.5ZM64.4792 62.5H64.5156V60H64.4792V62.5ZM64.5156 62.5H64.552V60H64.5156V62.5ZM64.552 62.5H64.5884V60H64.552V62.5ZM64.5884 62.5H64.6249V60H64.5884V62.5ZM64.6249 62.5H64.6614V60H64.6249V62.5ZM64.6614 62.5H64.698V60H64.6614V62.5ZM64.698 62.5H64.7346V60H64.698V62.5ZM64.7346 62.5H64.7713V60H64.7346V62.5ZM64.7713 62.5H64.808V60H64.7713V62.5ZM64.808 62.5H64.8448V60H64.808V62.5ZM64.8448 62.5H64.8816V60H64.8448V62.5ZM64.8816 62.5H64.9185V60H64.8816V62.5ZM64.9185 62.5H64.9553V60H64.9185V62.5ZM64.9553 62.5H64.9923V60H64.9553V62.5ZM64.9923 62.5H65.0293V60H64.9923V62.5ZM65.0293 62.5H65.0663V60H65.0293V62.5ZM65.0663 62.5H65.1033V60H65.0663V62.5ZM65.1033 62.5H65.1405V60H65.1033V62.5ZM65.1405 62.5H65.1776V60H65.1405V62.5ZM65.1776 62.5H65.2148V60H65.1776V62.5ZM65.2148 62.5H65.252V60H65.2148V62.5ZM65.252 62.5H65.2893V60H65.252V62.5ZM65.2893 62.5H65.3266V60H65.2893V62.5ZM65.3266 62.5H65.364V60H65.3266V62.5ZM65.364 62.5H65.4014V60H65.364V62.5ZM65.4014 62.5H65.4388V60H65.4014V62.5ZM65.4388 62.5H65.4763V60H65.4388V62.5ZM65.4763 62.5H65.5138V60H65.4763V62.5ZM65.5138 62.5H65.5513V60H65.5138V62.5ZM65.5513 62.5H65.5889V60H65.5513V62.5ZM65.5889 62.5H65.6266V60H65.5889V62.5ZM65.6266 62.5H65.6643V60H65.6266V62.5ZM65.6643 62.5H65.702V60H65.6643V62.5ZM65.702 62.5H65.7397V60H65.702V62.5ZM65.7397 62.5H65.7775V60H65.7397V62.5ZM65.7775 62.5H65.8153V60H65.7775V62.5ZM65.8153 62.5H65.8532V60H65.8153V62.5ZM65.8532 62.5H65.8911V60H65.8532V62.5ZM65.8911 62.5H65.9291V60H65.8911V62.5ZM65.9291 62.5H65.967V60H65.9291V62.5ZM65.967 62.5H66.0051V60H65.967V62.5ZM66.0051 62.5H66.0431V60H66.0051V62.5ZM66.0431 62.5H66.0812V60H66.0431V62.5ZM66.0812 62.5H66.1193V60H66.0812V62.5ZM66.1193 62.5H66.1575V60H66.1193V62.5ZM66.1575 62.5H66.1957V60H66.1575V62.5ZM66.1957 62.5H66.2339V60H66.1957V62.5ZM66.2339 62.5H66.2722V60H66.2339V62.5ZM66.2722 62.5H66.3105V60H66.2722V62.5ZM66.3105 62.5H66.3488V60H66.3105V62.5ZM66.3488 62.5H66.3872V60H66.3488V62.5ZM66.3872 62.5H66.4256V60H66.3872V62.5ZM66.4256 62.5H66.4641V60H66.4256V62.5ZM66.4641 62.5H66.5026V60H66.4641V62.5ZM66.5026 62.5H66.5411V60H66.5026V62.5ZM66.5411 62.5H66.5796V60H66.5411V62.5ZM66.5796 62.5H66.6182V60H66.5796V62.5ZM66.6182 62.5H66.6568V60H66.6182V62.5ZM66.6568 62.5H66.6955V60H66.6568V62.5ZM66.6955 62.5H66.7341V60H66.6955V62.5ZM66.7341 62.5H66.7729V60H66.7341V62.5ZM66.7729 62.5H66.8116V60H66.7729V62.5ZM66.8116 62.5H66.8504V60H66.8116V62.5ZM66.8504 62.5H66.8892V60H66.8504V62.5ZM66.8892 62.5H66.928V60H66.8892V62.5ZM66.928 62.5H66.9669V60H66.928V62.5ZM66.9669 62.5H67.0058V60H66.9669V62.5ZM67.0058 62.5H67.0448V60H67.0058V62.5ZM67.0448 62.5H67.0837V60H67.0448V62.5ZM67.0837 62.5H67.1227V60H67.0837V62.5ZM67.1227 62.5H67.1618V60H67.1227V62.5ZM67.1618 62.5H67.2008V60H67.1618V62.5ZM67.2008 62.5H67.2399V60H67.2008V62.5ZM67.2399 62.5H67.279V60H67.2399V62.5ZM67.279 62.5H67.3182V60H67.279V62.5ZM67.3182 62.5H67.3574V60H67.3182V62.5ZM67.3574 62.5H67.3966V60H67.3574V62.5ZM67.3966 62.5H67.4358V60H67.3966V62.5ZM67.4358 62.5H67.4751V60H67.4358V62.5ZM67.4751 62.5H67.5144V60H67.4751V62.5ZM67.5144 62.5H67.5537V60H67.5144V62.5ZM67.5537 62.5H67.593V60H67.5537V62.5ZM67.593 62.5H67.6324V60H67.593V62.5ZM67.6324 62.5H67.6718V60H67.6324V62.5ZM67.6718 62.5H67.7112V60H67.6718V62.5ZM67.7112 62.5H67.7507V60H67.7112V62.5ZM67.7507 62.5H67.7902V60H67.7507V62.5ZM67.7902 62.5H67.8297V60H67.7902V62.5ZM67.8297 62.5H67.8692V60H67.8297V62.5ZM67.8692 62.5H67.9088V60H67.8692V62.5ZM67.9088 62.5H67.9484V60H67.9088V62.5ZM67.9484 62.5H67.988V60H67.9484V62.5ZM67.988 62.5H68.0277V60H67.988V62.5ZM68.0277 62.5H68.0673V60H68.0277V62.5ZM68.0673 62.5H68.107V60H68.0673V62.5ZM68.107 62.5H68.1468V60H68.107V62.5ZM68.1468 62.5H68.1865V60H68.1468V62.5ZM68.1865 62.5H68.2263V60H68.1865V62.5ZM68.2263 62.5H68.2661V60H68.2263V62.5ZM68.2661 62.5H68.3059V60H68.2661V62.5ZM68.3059 62.5H68.3457V60H68.3059V62.5ZM68.3457 62.5H68.3856V60H68.3457V62.5ZM68.3856 62.5H68.4255V60H68.3856V62.5ZM68.4255 62.5H68.4654V60H68.4255V62.5ZM68.4654 62.5H68.5053V60H68.4654V62.5ZM68.5053 62.5H68.5453V60H68.5053V62.5ZM68.5453 62.5H68.5853V60H68.5453V62.5ZM68.5853 62.5H68.6253V60H68.5853V62.5ZM68.6253 62.5H68.6653V60H68.6253V62.5ZM68.6653 62.5H68.7053V60H68.6653V62.5ZM68.7053 62.5H68.7454V60H68.7053V62.5ZM68.7454 62.5C68.9291 62.5 68.8692 62.5328 68.6963 62.4448L69.8301 60.2167C69.5669 60.0827 69.2153 60 68.7454 60V62.5ZM68.6963 62.4448C68.6788 62.4359 68.5794 62.386 68.4686 62.2895C68.4035 62.2327 68.3375 62.1629 68.2774 62.0785C68.2218 62.0007 68.1868 61.9303 68.1893 61.9351L70.4064 60.7799C70.3746 60.7189 70.2868 60.5579 70.1112 60.4048C69.9909 60.3 69.8758 60.2399 69.8301 60.2167L68.6963 62.4448ZM68.1894 61.9354C68.1895 61.9354 68.1894 61.9354 68.1895 61.9354C68.1895 61.9355 68.1895 61.9355 68.1895 61.9356C68.1896 61.9357 68.1897 61.9359 68.1898 61.9361C68.19 61.9365 68.1904 61.9372 68.1908 61.938C68.1917 61.9397 68.1931 61.9424 68.1949 61.9457C68.1984 61.9523 68.2039 61.9625 68.2109 61.9749L70.3871 60.7445C70.3937 60.7561 70.3988 60.7656 70.402 60.7715C70.4047 60.7766 70.4071 60.7811 70.4063 60.7796L68.1894 61.9354ZM68.2109 61.9749C68.1614 61.8873 68.1375 61.8175 68.127 61.7824C68.1155 61.7438 68.1135 61.7243 68.1144 61.7311L70.5924 61.4C70.5631 61.1809 70.5045 60.9521 70.3871 60.7445L68.2109 61.9749ZM68.1144 61.7311C68.1186 61.7624 68.1217 61.8135 68.1217 62H70.6217C70.6217 61.8326 70.6218 61.6205 70.5924 61.4L68.1144 61.7311ZM68.1217 62C68.1217 70.0622 74.7918 76.5 82.8978 76.5V74C76.1171 74 70.6217 68.6267 70.6217 62H68.1217ZM82.8978 76.5C91.0037 76.5 97.6739 70.0622 97.6739 62H95.1739C95.1739 68.6267 89.6784 74 82.8978 74V76.5ZM97.6739 62C97.6739 61.8134 97.677 61.7624 97.6811 61.7311L95.2032 61.4C95.1737 61.6205 95.1739 61.8326 95.1739 62H97.6739ZM97.6812 61.7311C97.6821 61.7243 97.68 61.7438 97.6685 61.7823C97.658 61.8175 97.6341 61.8873 97.5846 61.9749L95.4084 60.7445C95.291 60.9521 95.2324 61.1809 95.2032 61.4L97.6812 61.7311ZM97.5856 61.9731C97.5924 61.9611 97.5978 61.951 97.6013 61.9444C97.6031 61.9411 97.6045 61.9384 97.6054 61.9366C97.6063 61.9349 97.6071 61.9335 97.6071 61.9334L95.3882 60.7816C95.3878 60.7825 95.3901 60.7781 95.3929 60.7728C95.396 60.7669 95.401 60.7576 95.4074 60.7462L97.5856 61.9731ZM97.606 61.9355C97.6085 61.9307 97.5735 62.001 97.518 62.0788C97.4579 62.1631 97.3919 62.2328 97.3268 62.2896C97.2161 62.3861 97.1167 62.4359 97.0992 62.4448L95.9654 60.2167C95.9197 60.2399 95.8047 60.3 95.6845 60.4048C95.5089 60.5577 95.4211 60.7186 95.3893 60.7795L97.606 61.9355ZM97.0992 62.4448C96.9263 62.5328 96.8664 62.5 97.0501 62.5V60C96.5802 60 96.2287 60.0827 95.9654 60.2167L97.0992 62.4448ZM97.0501 62.5H122V60H97.0501V62.5ZM122 62.5C123.381 62.5 124.5 61.3807 124.5 60H122V62.5ZM124.5 60C124.5 58.6193 123.381 57.5 122 57.5V60H124.5ZM122 57.5H97.0501V60H122V57.5ZM97.0501 57.5C95.4487 57.5 94.0161 58.1275 93.2321 59.514L95.4084 60.7445C95.6407 60.3337 96.1064 60 97.0501 60V57.5ZM93.2321 59.514C92.6527 60.5389 92.6725 61.6345 92.6737 61.9587L95.1737 61.9494C95.1725 61.6215 95.1864 61.1371 95.4084 60.7445L93.2321 59.514ZM92.6737 61.9587C92.6738 61.9758 92.6739 61.9887 92.6739 62H95.1739C95.1739 61.9832 95.1738 61.9653 95.1737 61.9494L92.6737 61.9587ZM92.6739 62C92.6739 67.1943 88.3499 71.5 82.8978 71.5V74C89.6786 74 95.1739 68.6265 95.1739 62H92.6739ZM82.8978 71.5C77.4456 71.5 73.1217 67.1943 73.1217 62H70.6217C70.6217 68.6265 76.1169 74 82.8978 74V71.5ZM73.1217 62C73.1217 61.9887 73.1217 61.9758 73.1218 61.9587L70.6218 61.9494C70.6217 61.9653 70.6217 61.9831 70.6217 62H73.1217ZM73.1218 61.9587C73.123 61.6345 73.1428 60.5389 72.5634 59.514L70.3871 60.7445C70.6091 61.1371 70.623 61.6215 70.6218 61.9494L73.1218 61.9587ZM72.5634 59.514C71.7794 58.1275 70.3469 57.5 68.7454 57.5V60C69.6892 60 70.1549 60.3337 70.3871 60.7445L72.5634 59.514ZM68.7454 57.5H68.7053V60H68.7454V57.5ZM68.7053 57.5H68.6653V60H68.7053V57.5ZM68.6653 57.5H68.6253V60H68.6653V57.5ZM68.6253 57.5H68.5853V60H68.6253V57.5ZM68.5853 57.5H68.5453V60H68.5853V57.5ZM68.5453 57.5H68.5053V60H68.5453V57.5ZM68.5053 57.5H68.4654V60H68.5053V57.5ZM68.4654 57.5H68.4255V60H68.4654V57.5ZM68.4255 57.5H68.3856V60H68.4255V57.5ZM68.3856 57.5H68.3457V60H68.3856V57.5ZM68.3457 57.5H68.3059V60H68.3457V57.5ZM68.3059 57.5H68.2661V60H68.3059V57.5ZM68.2661 57.5H68.2263V60H68.2661V57.5ZM68.2263 57.5H68.1865V60H68.2263V57.5ZM68.1865 57.5H68.1468V60H68.1865V57.5ZM68.1468 57.5H68.107V60H68.1468V57.5ZM68.107 57.5H68.0673V60H68.107V57.5ZM68.0673 57.5H68.0277V60H68.0673V57.5ZM68.0277 57.5H67.988V60H68.0277V57.5ZM67.988 57.5H67.9484V60H67.988V57.5ZM67.9484 57.5H67.9088V60H67.9484V57.5ZM67.9088 57.5H67.8692V60H67.9088V57.5ZM67.8692 57.5H67.8297V60H67.8692V57.5ZM67.8297 57.5H67.7902V60H67.8297V57.5ZM67.7902 57.5H67.7507V60H67.7902V57.5ZM67.7507 57.5H67.7112V60H67.7507V57.5ZM67.7112 57.5H67.6718V60H67.7112V57.5ZM67.6718 57.5H67.6324V60H67.6718V57.5ZM67.6324 57.5H67.593V60H67.6324V57.5ZM67.593 57.5H67.5537V60H67.593V57.5ZM67.5537 57.5H67.5144V60H67.5537V57.5ZM67.5144 57.5H67.4751V60H67.5144V57.5ZM67.4751 57.5H67.4358V60H67.4751V57.5ZM67.4358 57.5H67.3966V60H67.4358V57.5ZM67.3966 57.5H67.3574V60H67.3966V57.5ZM67.3574 57.5H67.3182V60H67.3574V57.5ZM67.3182 57.5H67.279V60H67.3182V57.5ZM67.279 57.5H67.2399V60H67.279V57.5ZM67.2399 57.5H67.2008V60H67.2399V57.5ZM67.2008 57.5H67.1618V60H67.2008V57.5ZM67.1618 57.5H67.1227V60H67.1618V57.5ZM67.1227 57.5H67.0837V60H67.1227V57.5ZM67.0837 57.5H67.0448V60H67.0837V57.5ZM67.0448 57.5H67.0058V60H67.0448V57.5ZM67.0058 57.5H66.9669V60H67.0058V57.5ZM66.9669 57.5H66.928V60H66.9669V57.5ZM66.928 57.5H66.8892V60H66.928V57.5ZM66.8892 57.5H66.8504V60H66.8892V57.5ZM66.8504 57.5H66.8116V60H66.8504V57.5ZM66.8116 57.5H66.7729V60H66.8116V57.5ZM66.7729 57.5H66.7341V60H66.7729V57.5ZM66.7341 57.5H66.6955V60H66.7341V57.5ZM66.6955 57.5H66.6568V60H66.6955V57.5ZM66.6568 57.5H66.6182V60H66.6568V57.5ZM66.6182 57.5H66.5796V60H66.6182V57.5ZM66.5796 57.5H66.5411V60H66.5796V57.5ZM66.5411 57.5H66.5026V60H66.5411V57.5ZM66.5026 57.5H66.4641V60H66.5026V57.5ZM66.4641 57.5H66.4256V60H66.4641V57.5ZM66.4256 57.5H66.3872V60H66.4256V57.5ZM66.3872 57.5H66.3488V60H66.3872V57.5ZM66.3488 57.5H66.3105V60H66.3488V57.5ZM66.3105 57.5H66.2722V60H66.3105V57.5ZM66.2722 57.5H66.2339V60H66.2722V57.5ZM66.2339 57.5H66.1957V60H66.2339V57.5ZM66.1957 57.5H66.1575V60H66.1957V57.5ZM66.1575 57.5H66.1193V60H66.1575V57.5ZM66.1193 57.5H66.0812V60H66.1193V57.5ZM66.0812 57.5H66.0431V60H66.0812V57.5ZM66.0431 57.5H66.0051V60H66.0431V57.5ZM66.0051 57.5H65.967V60H66.0051V57.5ZM65.967 57.5H65.9291V60H65.967V57.5ZM65.9291 57.5H65.8911V60H65.9291V57.5ZM65.8911 57.5H65.8532V60H65.8911V57.5ZM65.8532 57.5H65.8153V60H65.8532V57.5ZM65.8153 57.5H65.7775V60H65.8153V57.5ZM65.7775 57.5H65.7397V60H65.7775V57.5ZM65.7397 57.5H65.702V60H65.7397V57.5ZM65.702 57.5H65.6643V60H65.702V57.5ZM65.6643 57.5H65.6266V60H65.6643V57.5ZM65.6266 57.5H65.5889V60H65.6266V57.5ZM65.5889 57.5H65.5513V60H65.5889V57.5ZM65.5513 57.5H65.5138V60H65.5513V57.5ZM65.5138 57.5H65.4763V60H65.5138V57.5ZM65.4763 57.5H65.4388V60H65.4763V57.5ZM65.4388 57.5H65.4014V60H65.4388V57.5ZM65.4014 57.5H65.364V60H65.4014V57.5ZM65.364 57.5H65.3266V60H65.364V57.5ZM65.3266 57.5H65.2893V60H65.3266V57.5ZM65.2893 57.5H65.252V60H65.2893V57.5ZM65.252 57.5H65.2148V60H65.252V57.5ZM65.2148 57.5H65.1776V60H65.2148V57.5ZM65.1776 57.5H65.1405V60H65.1776V57.5ZM65.1405 57.5H65.1033V60H65.1405V57.5ZM65.1033 57.5H65.0663V60H65.1033V57.5ZM65.0663 57.5H65.0293V60H65.0663V57.5ZM65.0293 57.5H64.9923V60H65.0293V57.5ZM64.9923 57.5H64.9553V60H64.9923V57.5ZM64.9553 57.5H64.9185V60H64.9553V57.5ZM64.9185 57.5H64.8816V60H64.9185V57.5ZM64.8816 57.5H64.8448V60H64.8816V57.5ZM64.8448 57.5H64.808V60H64.8448V57.5ZM64.808 57.5H64.7713V60H64.808V57.5ZM64.7713 57.5H64.7346V60H64.7713V57.5ZM64.7346 57.5H64.698V60H64.7346V57.5ZM64.698 57.5H64.6614V60H64.698V57.5ZM64.6614 57.5H64.6249V60H64.6614V57.5ZM64.6249 57.5H64.5884V60H64.6249V57.5ZM64.5884 57.5H64.552V60H64.5884V57.5ZM64.552 57.5H64.5156V60H64.552V57.5ZM64.5156 57.5H64.4792V60H64.5156V57.5ZM64.4792 57.5H64.4429V60H64.4792V57.5ZM64.4429 57.5H64.4066V60H64.4429V57.5ZM64.4066 57.5H64.3704V60H64.4066V57.5ZM64.3704 57.5H64.3342V60H64.3704V57.5ZM64.3342 57.5H64.2981V60H64.3342V57.5ZM64.2981 57.5H64.262V60H64.2981V57.5ZM64.262 57.5H64.226V60H64.262V57.5ZM64.226 57.5H64.19V60H64.226V57.5ZM64.19 57.5H64.1541V60H64.19V57.5ZM64.1541 57.5H64.1182V60H64.1541V57.5ZM64.1182 57.5H64.0824V60H64.1182V57.5ZM64.0824 57.5H64.0466V60H64.0824V57.5ZM64.0466 57.5H64.0108V60H64.0466V57.5ZM64.0108 57.5H63.9751V60H64.0108V57.5ZM63.9751 57.5H63.9395V60H63.9751V57.5ZM63.9395 57.5H63.9039V60H63.9395V57.5ZM63.9039 57.5H63.8684V60H63.9039V57.5ZM63.8684 57.5H63.8329V60H63.8684V57.5ZM63.8329 57.5H63.7974V60H63.8329V57.5ZM63.7974 57.5H63.762V60H63.7974V57.5ZM63.762 57.5H63.7267V60H63.762V57.5ZM63.7267 57.5H63.6914V60H63.7267V57.5ZM63.6914 57.5H63.6562V60H63.6914V57.5ZM63.6562 57.5H63.621V60H63.6562V57.5ZM63.621 57.5H63.5858V60H63.621V57.5ZM63.5858 57.5H63.5507V60H63.5858V57.5ZM63.5507 57.5H63.5157V60H63.5507V57.5ZM63.5157 57.5H63.4807V60H63.5157V57.5ZM63.4807 57.5H63.4458V60H63.4807V57.5ZM63.4458 57.5H63.4109V60H63.4458V57.5ZM63.4109 57.5H63.3761V60H63.4109V57.5ZM63.3761 57.5H63.3413V60H63.3761V57.5ZM63.3413 57.5H63.3066V60H63.3413V57.5ZM63.3066 57.5H63.2719V60H63.3066V57.5ZM63.2719 57.5H63.2373V60H63.2719V57.5ZM63.2373 57.5H63.2028V60H63.2373V57.5ZM63.2028 57.5H63.1682V60H63.2028V57.5ZM63.1682 57.5H63.1338V60H63.1682V57.5ZM63.1338 57.5H63.0994V60H63.1338V57.5ZM63.0994 57.5H63.0651V60H63.0994V57.5ZM63.0651 57.5H63.0308V60H63.0651V57.5ZM63.0308 57.5H62.9965V60H63.0308V57.5ZM62.9965 57.5H62.9624V60H62.9965V57.5ZM62.9624 57.5H62.9283V60H62.9624V57.5ZM62.9283 57.5H62.8942V60H62.9283V57.5ZM62.8942 57.5H62.8602V60H62.8942V57.5ZM62.8602 57.5H62.8262V60H62.8602V57.5ZM62.8262 57.5H62.7923V60H62.8262V57.5ZM62.7923 57.5H62.7585V60H62.7923V57.5ZM62.7585 57.5H62.7247V60H62.7585V57.5ZM62.7247 57.5H62.691V60H62.7247V57.5ZM62.691 57.5H62.6573V60H62.691V57.5ZM62.6573 57.5H62.6237V60H62.6573V57.5ZM62.6237 57.5H62.5902V60H62.6237V57.5ZM62.5902 57.5H62.5567V60H62.5902V57.5ZM62.5567 57.5H62.5232V60H62.5567V57.5ZM62.5232 57.5H62.4899V60H62.5232V57.5ZM62.4899 57.5H62.4565V60H62.4899V57.5ZM62.4565 57.5H62.4233V60H62.4565V57.5ZM62.4233 57.5H62.3901V60H62.4233V57.5ZM62.3901 57.5H62.3569V60H62.3901V57.5ZM62.3569 57.5H62.3239V60H62.3569V57.5ZM62.3239 57.5H62.2908V60H62.3239V57.5ZM62.2908 57.5H62.2579V60H62.2908V57.5ZM62.2579 57.5H62.225V60H62.2579V57.5ZM62.225 57.5H62.1921V60H62.225V57.5ZM62.1921 57.5H62.1594V60H62.1921V57.5ZM62.1594 57.5H62.1266V60H62.1594V57.5ZM62.1266 57.5H62.094V60H62.1266V57.5ZM62.094 57.5H62.0614V60H62.094V57.5ZM62.0614 57.5H62.0289V60H62.0614V57.5ZM62.0289 57.5H61.9964V60H62.0289V57.5ZM61.9964 57.5H61.964V60H61.9964V57.5ZM61.964 57.5H61.9316V60H61.964V57.5ZM61.9316 57.5H61.8993V60H61.9316V57.5ZM61.8993 57.5H61.8671V60H61.8993V57.5ZM61.8671 57.5H61.835V60H61.8671V57.5ZM61.835 57.5H61.8029V60H61.835V57.5ZM61.8029 57.5H61.7708V60H61.8029V57.5ZM61.7708 57.5H61.7389V60H61.7708V57.5ZM61.7389 57.5H61.7069V60H61.7389V57.5ZM61.7069 57.5H61.6751V60H61.7069V57.5ZM61.6751 57.5H61.6433V60H61.6751V57.5ZM61.6433 57.5H61.6116V60H61.6433V57.5ZM61.6116 57.5H61.58V60H61.6116V57.5ZM61.58 57.5H61.5484V60H61.58V57.5ZM61.5484 57.5H61.5169V60H61.5484V57.5ZM61.5169 57.5H61.4854V60H61.5169V57.5ZM61.4854 57.5H61.454V60H61.4854V57.5ZM61.454 57.5H61.4227V60H61.454V57.5ZM61.4227 57.5H61.3914V60H61.4227V57.5ZM61.3914 57.5H61.3603V60H61.3914V57.5ZM61.3603 57.5H61.3291V60H61.3603V57.5ZM61.3291 57.5H61.2981V60H61.3291V57.5ZM61.2981 57.5H61.2671V60H61.2981V57.5ZM61.2671 57.5H61.2362V60H61.2671V57.5ZM61.2362 57.5H61.2053V60H61.2362V57.5ZM61.2053 57.5H61.1745V60H61.2053V57.5ZM61.1745 57.5H61.1438V60H61.1745V57.5ZM61.1438 57.5H61.1132V60H61.1438V57.5ZM61.1132 57.5H61.0826V60H61.1132V57.5ZM61.0826 57.5H61.0521V60H61.0826V57.5ZM61.0521 57.5H61.0216V60H61.0521V57.5ZM61.0216 57.5H60.9912V60H61.0216V57.5ZM60.9912 57.5H60.9609V60H60.9912V57.5ZM60.9609 57.5H60.9307V60H60.9609V57.5ZM60.9307 57.5H60.9005V60H60.9307V57.5ZM60.9005 57.5H60.8704V60H60.9005V57.5ZM60.8704 57.5H60.8404V60H60.8704V57.5ZM60.8404 57.5H60.8104V60H60.8404V57.5ZM60.8104 57.5H60.7806V60H60.8104V57.5ZM60.7806 57.5H60.7507V60H60.7806V57.5ZM60.7507 57.5H60.721V60H60.7507V57.5ZM60.721 57.5H60.6913V60H60.721V57.5ZM60.6913 57.5H60.6617V60H60.6913V57.5ZM60.6617 57.5H60.6322V60H60.6617V57.5ZM60.6322 57.5H60.6027V60H60.6322V57.5ZM60.6027 57.5H60.5733V60H60.6027V57.5ZM60.5733 57.5H60.544V60H60.5733V57.5ZM60.544 57.5H60.5148V60H60.544V57.5ZM60.5148 57.5H60.4856V60H60.5148V57.5ZM60.4856 57.5H60.4565V60H60.4856V57.5ZM60.4565 57.5H60.4275V60H60.4565V57.5ZM60.4275 57.5H60.3985V60H60.4275V57.5ZM60.3985 57.5H60.3697V60H60.3985V57.5ZM60.3697 57.5H60.3409V60H60.3697V57.5ZM60.3409 57.5H60.3121V60H60.3409V57.5ZM60.3121 57.5H60.2835V60H60.3121V57.5ZM60.2835 57.5H60.2549V60H60.2835V57.5ZM60.2549 57.5H60.2264V60H60.2549V57.5ZM60.2264 57.5H60.198V60H60.2264V57.5ZM60.198 57.5H60.1696V60H60.198V57.5ZM60.1696 57.5H60.1413V60H60.1696V57.5ZM60.1413 57.5H60.1131V60H60.1413V57.5ZM60.1131 57.5H60.085V60H60.1131V57.5ZM60.085 57.5H60.0569V60H60.085V57.5ZM60.0569 57.5H60.029V60H60.0569V57.5ZM60.029 57.5H60.0011V60H60.029V57.5ZM60.0011 57.5H59.9732V60H60.0011V57.5ZM59.9732 57.5H59.9455V60H59.9732V57.5ZM59.9455 57.5H59.9178V60H59.9455V57.5ZM59.9178 57.5H59.8902V60H59.9178V57.5ZM59.8902 57.5H59.8627V60H59.8902V57.5ZM59.8627 57.5H59.8353V60H59.8627V57.5ZM59.8353 57.5H59.8079V60H59.8353V57.5ZM59.8079 57.5H59.7806V60H59.8079V57.5ZM59.7806 57.5H59.7534V60H59.7806V57.5ZM59.7534 57.5H59.7263V60H59.7534V57.5ZM59.7263 57.5H59.6993V60H59.7263V57.5ZM59.6993 57.5H59.6723V60H59.6993V57.5ZM59.6723 57.5H59.6454V60H59.6723V57.5ZM59.6454 57.5H59.6186V60H59.6454V57.5ZM59.6186 57.5H59.5919V60H59.6186V57.5ZM59.5919 57.5H59.5652V60H59.5919V57.5ZM59.5652 57.5H59.5387V60H59.5652V57.5ZM59.5387 57.5H59.5122V60H59.5387V57.5ZM59.5122 57.5H59.4858V60H59.5122V57.5ZM59.4858 57.5H59.4595V60H59.4858V57.5ZM59.4595 57.5H59.4332V60H59.4595V57.5ZM59.4332 57.5H59.4071V60H59.4332V57.5ZM59.4071 57.5H59.381V60H59.4071V57.5ZM59.381 57.5H59.355V60H59.381V57.5ZM59.355 57.5H59.3291V60H59.355V57.5ZM59.3291 57.5H59.3032V60H59.3291V57.5ZM59.3032 57.5H59.2775V60H59.3032V57.5ZM59.2775 57.5H59.2518V60H59.2775V57.5ZM59.2518 57.5H59.2262V60H59.2518V57.5ZM59.2262 57.5H59.2007V60H59.2262V57.5ZM59.2007 57.5H59.1753V60H59.2007V57.5ZM59.1753 57.5H59.15V60H59.1753V57.5ZM59.15 57.5H59.1247V60H59.15V57.5ZM59.1247 57.5H59.0996V60H59.1247V57.5ZM59.0996 57.5H59.0745V60H59.0996V57.5ZM59.0745 57.5H59.0495V60H59.0745V57.5ZM59.0495 57.5H59.0246V60H59.0495V57.5ZM59.0246 57.5H58.9998V60H59.0246V57.5ZM58.9998 57.5H58.975V60H58.9998V57.5ZM58.975 57.5H58.9503V60H58.975V57.5ZM58.9503 57.5H58.9258V60H58.9503V57.5ZM58.9258 57.5H58.9013V60H58.9258V57.5ZM58.9013 57.5H58.8769V60H58.9013V57.5ZM58.8769 57.5H58.8526V60H58.8769V57.5ZM58.8526 57.5H58.8284V60H58.8526V57.5ZM58.8284 57.5H58.8042V60H58.8284V57.5ZM58.8042 57.5H58.7802V60H58.8042V57.5ZM58.7802 57.5H58.7562V60H58.7802V57.5ZM58.7562 57.5H58.7323V60H58.7562V57.5ZM58.7323 57.5H58.7085V60H58.7323V57.5ZM58.7085 57.5H58.6848V60H58.7085V57.5ZM58.6848 57.5H58.6612V60H58.6848V57.5ZM58.6612 57.5H58.6377V60H58.6612V57.5ZM58.6377 57.5H58.6142V60H58.6377V57.5ZM58.6142 57.5H58.5909V60H58.6142V57.5ZM58.5909 57.5H58.5676V60H58.5909V57.5ZM58.5676 57.5H58.5444V60H58.5676V57.5ZM58.5444 57.5H58.5214V60H58.5444V57.5ZM58.5214 57.5H58.4984V60H58.5214V57.5ZM58.4984 57.5H58.4755V60H58.4984V57.5ZM58.4755 57.5H58.4527V60H58.4755V57.5ZM58.4527 57.5H58.4299V60H58.4527V57.5ZM58.4299 57.5H58.4073V60H58.4299V57.5ZM58.4073 57.5H58.3848V60H58.4073V57.5ZM58.3848 57.5H58.3623V60H58.3848V57.5ZM58.3623 57.5H58.3399V60H58.3623V57.5ZM58.3399 57.5H58.3177V60H58.3399V57.5ZM58.3177 57.5H58.2955V60H58.3177V57.5ZM58.2955 57.5H58.2734V60H58.2955V57.5ZM58.2734 57.5H58.2514V60H58.2734V57.5ZM58.2514 57.5H58.2295V60H58.2514V57.5ZM58.2295 57.5H58.2077V60H58.2295V57.5ZM58.2077 57.5H58.186V60H58.2077V57.5ZM58.186 57.5H58.1644V60H58.186V57.5ZM58.1644 57.5H58.1429V60H58.1644V57.5ZM58.1429 57.5H58.1214V60H58.1429V57.5ZM58.1214 57.5H58.1001V60H58.1214V57.5ZM58.1001 57.5H58.0788V60H58.1001V57.5ZM58.0788 57.5H58.0577V60H58.0788V57.5ZM58.0577 57.5H58.0366V60H58.0577V57.5ZM58.0366 57.5H58.0156V60H58.0366V57.5ZM58.0156 57.5H57.9948V60H58.0156V57.5ZM57.9948 57.5H57.974V60H57.9948V57.5ZM57.974 57.5H57.9533V60H57.974V57.5ZM57.9533 57.5H57.9327V60H57.9533V57.5ZM57.9327 57.5H57.9122V60H57.9327V57.5ZM57.9122 57.5H57.8919V60H57.9122V57.5ZM57.8919 57.5H57.8716V60H57.8919V57.5ZM57.8716 57.5H57.8514V60H57.8716V57.5ZM57.8514 57.5H57.8312V60H57.8514V57.5ZM57.8312 57.5H57.8112V60H57.8312V57.5ZM57.8112 57.5H57.7913V60H57.8112V57.5ZM57.7913 57.5H57.7715V60H57.7913V57.5ZM57.7715 57.5H57.7518V60H57.7715V57.5ZM57.7518 57.5H57.7322V60H57.7518V57.5ZM57.7322 57.5H57.7127V60H57.7322V57.5ZM57.7127 57.5H57.6932V60H57.7127V57.5ZM57.6932 57.5H57.6739V60H57.6932V57.5ZM57.6739 57.5H57.6547V60H57.6739V57.5ZM57.6547 57.5H57.6356V60H57.6547V57.5ZM57.6356 57.5H57.6165V60H57.6356V57.5ZM57.6165 57.5H57.5976V60H57.6165V57.5ZM57.5976 57.5H57.5788V60H57.5976V57.5ZM57.5788 57.5H57.56V60H57.5788V57.5ZM57.56 57.5H57.5414V60H57.56V57.5ZM57.5414 57.5H57.5229V60H57.5414V57.5ZM57.5229 57.5H57.5044V60H57.5229V57.5ZM57.5044 57.5H57.4861V60H57.5044V57.5ZM57.4861 57.5H57.4679V60H57.4861V57.5ZM57.4679 57.5H57.4498V60H57.4679V57.5ZM57.4498 57.5H57.4317V60H57.4498V57.5ZM57.4317 57.5H57.4138V60H57.4317V57.5ZM57.4138 57.5H57.396V60H57.4138V57.5ZM57.396 57.5H57.3783V60H57.396V57.5ZM57.3783 57.5H57.3606V60H57.3783V57.5ZM57.3606 57.5H57.3431V60H57.3606V57.5ZM57.3431 57.5H57.3257V60H57.3431V57.5ZM57.3257 57.5H57.3084V60H57.3257V57.5ZM57.3084 57.5H57.2912V60H57.3084V57.5ZM57.2912 57.5H57.2741V60H57.2912V57.5ZM57.2741 57.5H57.2571V60H57.2741V57.5ZM57.2571 57.5H57.2402V60H57.2571V57.5ZM57.2402 57.5H57.2234V60H57.2402V57.5ZM57.2234 57.5H57.2067V60H57.2234V57.5ZM57.2067 57.5H57.1901V60H57.2067V57.5ZM57.1901 57.5H57.1736V60H57.1901V57.5ZM57.1736 57.5H57.1572V60H57.1736V57.5ZM57.1572 57.5H57.141V60H57.1572V57.5ZM57.141 57.5H57.1248V60H57.141V57.5ZM57.1248 57.5H57.1087V60H57.1248V57.5ZM57.1087 57.5H57.0928V60H57.1087V57.5ZM57.0928 57.5H57.0769V60H57.0928V57.5ZM57.0769 57.5H57.0612V60H57.0769V57.5ZM57.0612 57.5H57.0455V60H57.0612V57.5ZM57.0455 57.5H57.03V60H57.0455V57.5ZM57.03 57.5H57.0146V60H57.03V57.5ZM57.0146 57.5H56.9993V60H57.0146V57.5ZM56.9993 57.5H56.984V60H56.9993V57.5ZM56.984 57.5H56.9689V60H56.984V57.5ZM56.9689 57.5H56.9539V60H56.9689V57.5ZM56.9539 57.5H56.939V60H56.9539V57.5ZM56.939 57.5H56.9243V60H56.939V57.5ZM56.9243 57.5H56.9096V60H56.9243V57.5ZM56.9096 57.5H56.895V60H56.9096V57.5ZM56.895 57.5H56.8806V60H56.895V57.5ZM56.8806 57.5H56.8662V60H56.8806V57.5ZM56.8662 57.5H56.852V60H56.8662V57.5ZM56.852 57.5H56.8379V60H56.852V57.5ZM56.8379 57.5H56.8238V60H56.8379V57.5ZM56.8238 57.5H56.8099V60H56.8238V57.5ZM56.8099 57.5H56.7961V60H56.8099V57.5ZM56.7961 57.5H56.7824V60H56.7961V57.5ZM56.7824 57.5H56.7689V60H56.7824V57.5ZM56.7689 57.5H56.7554V60H56.7689V57.5ZM56.7554 57.5H56.742V60H56.7554V57.5ZM56.742 57.5H56.7288V60H56.742V57.5ZM56.7288 57.5H56.7157V60H56.7288V57.5ZM56.7157 57.5H56.7026V60H56.7157V57.5ZM56.7026 57.5H56.6897V60H56.7026V57.5ZM56.6897 57.5H56.6769V60H56.6897V57.5ZM56.6769 57.5H56.6643V60H56.6769V57.5ZM56.6643 57.5H56.6517V60H56.6643V57.5ZM56.6517 57.5H56.6392V60H56.6517V57.5ZM56.6392 57.5H56.6269V60H56.6392V57.5ZM56.6269 57.5H56.6146V60H56.6269V57.5ZM56.6146 57.5H56.6025V60H56.6146V57.5ZM56.6025 57.5H56.5905V60H56.6025V57.5ZM56.5905 57.5H56.5786V60H56.5905V57.5ZM56.5786 57.5H56.5668V60H56.5786V57.5ZM56.5668 57.5H56.5552V60H56.5668V57.5ZM56.5552 57.5H56.5436V60H56.5552V57.5ZM56.5436 57.5H56.5322V60H56.5436V57.5ZM56.5322 57.5H56.5209V60H56.5322V57.5ZM56.5209 57.5H56.5097V60H56.5209V57.5ZM56.5097 57.5H56.4986V60H56.5097V57.5ZM56.4986 57.5H56.4876V60H56.4986V57.5ZM56.4876 57.5H56.4767V60H56.4876V57.5ZM56.4767 57.5H56.466V60H56.4767V57.5ZM56.466 57.5H56.4554V60H56.466V57.5ZM56.4554 57.5H56.4448V60H56.4554V57.5ZM56.4448 57.5H56.4345V60H56.4448V57.5ZM56.4345 57.5H56.4242V60H56.4345V57.5ZM56.4242 57.5H56.414V60H56.4242V57.5ZM56.414 57.5H56.404V60H56.414V57.5ZM56.404 57.5H56.394V60H56.404V57.5ZM56.394 57.5H56.3842V60H56.394V57.5ZM56.3842 57.5H56.3746V60H56.3842V57.5ZM56.3746 57.5H56.365V60H56.3746V57.5ZM56.365 57.5H56.3555V60H56.365V57.5ZM56.3555 57.5H56.3462V60H56.3555V57.5ZM56.3462 57.5H56.337V60H56.3462V57.5ZM56.337 57.5H56.3279V60H56.337V57.5ZM56.3279 57.5H56.3189V60H56.3279V57.5ZM56.3189 57.5H56.3101V60H56.3189V57.5ZM56.3101 57.5H56.3013V60H56.3101V57.5ZM56.3013 57.5H56.2927V60H56.3013V57.5ZM56.2927 57.5H56.2842V60H56.2927V57.5ZM56.2842 57.5H56.2758V60H56.2842V57.5ZM56.2758 57.5H56.2676V60H56.2758V57.5ZM56.2676 57.5H56.2594V60H56.2676V57.5ZM56.2594 57.5H56.2514V60H56.2594V57.5ZM56.2514 57.5H56.2435V60H56.2514V57.5ZM56.2435 57.5H56.2358V60H56.2435V57.5ZM56.2358 57.5H56.2281V60H56.2358V57.5ZM56.2281 57.5H56.2206V60H56.2281V57.5ZM56.2206 57.5H56.2132V60H56.2206V57.5ZM56.2132 57.5H56.2059V60H56.2132V57.5ZM56.2059 57.5H56.1987V60H56.2059V57.5ZM56.1987 57.5H56.1917V60H56.1987V57.5ZM56.1917 57.5H56.1848V60H56.1917V57.5ZM56.1848 57.5H56.178V60H56.1848V57.5ZM56.178 57.5H56.1713V60H56.178V57.5ZM56.1713 57.5H56.1648V60H56.1713V57.5ZM56.1648 57.5H56.1584V60H56.1648V57.5ZM56.1584 57.5H56.1521V60H56.1584V57.5ZM56.1521 57.5H56.1459V60H56.1521V57.5ZM56.1459 57.5H56.1399V60H56.1459V57.5ZM56.1399 57.5H56.134V60H56.1399V57.5ZM56.134 57.5H56.1282V60H56.134V57.5ZM56.1282 57.5H56.1225V60H56.1282V57.5ZM56.1225 57.5H56.1169V60H56.1225V57.5ZM56.1169 57.5H56.1115V60H56.1169V57.5ZM56.1115 57.5H56.1062V60H56.1115V57.5ZM56.1062 57.5H56.1011V60H56.1062V57.5ZM56.1011 57.5H56.096V60H56.1011V57.5ZM56.096 57.5H56.0911V60H56.096V57.5ZM56.0911 57.5H56.0863V60H56.0911V57.5ZM56.0863 57.5H56.0817V60H56.0863V57.5ZM56.0817 57.5H56.0772V60H56.0817V57.5ZM56.0772 57.5H56.0727V60H56.0772V57.5ZM56.0727 57.5H56.0685V60H56.0727V57.5ZM56.0685 57.5H56.0643V60H56.0685V57.5ZM56.0643 57.5H56.0603V60H56.0643V57.5ZM56.0603 57.5H56.0564V60H56.0603V57.5ZM56.0564 57.5H56.0527V60H56.0564V57.5ZM56.0527 57.5H56.049V60H56.0527V57.5ZM56.049 57.5H56.0455V60H56.049V57.5ZM56.0455 57.5H56.0421V60H56.0455V57.5ZM56.0421 57.5H56.0389V60H56.0421V57.5ZM56.0389 57.5H56.0358V60H56.0389V57.5ZM56.0358 57.5H56.0328V60H56.0358V57.5ZM56.0328 57.5H56.0299V60H56.0328V57.5ZM56.0299 57.5H56.0272V60H56.0299V57.5ZM56.0272 57.5H56.0246V60H56.0272V57.5ZM56.0246 57.5H56.0222V60H56.0246V57.5ZM56.0222 57.5H56.0198V60H56.0222V57.5ZM56.0198 57.5H56.0176V60H56.0198V57.5ZM56.0176 57.5H56.0156V60H56.0176V57.5ZM56.0156 57.5H56.0136V60H56.0156V57.5ZM56.0136 57.5H56.0118V60H56.0136V57.5ZM56.0118 57.5H56.0102V60H56.0118V57.5ZM56.0102 57.5H56.0086V60H56.0102V57.5ZM56.0086 57.5H56.0072V60H56.0086V57.5ZM56.0072 57.5H56.0059V60H56.0072V57.5ZM56.0059 57.5H56.0048V60H56.0059V57.5ZM56.0048 57.5H56.0038V60H56.0048V57.5ZM56.0038 57.5H56.0029V60H56.0038V57.5ZM56.0029 57.5H56.0022V60H56.0029V57.5ZM56.0022 57.5H56.0016V60H56.0022V57.5ZM56.0016 57.5H56.0011V60H56.0016V57.5ZM56.0011 57.5H56.0008V60H56.0011V57.5ZM56.0008 57.5H56.0006V60H56.0008V57.5ZM54.7506 58.7499L54.7505 59.9999L57.2505 60.0001L57.2506 58.7501L54.7506 58.7499Z" fill="#B3B3B3"/>
<path d="M56.9332 6.47102L56 7.30273H56L56.9332 6.47102ZM68.0328 18.9241L68.9659 18.0924L68.0328 18.9241ZM67.9313 20.689L68.7631 21.6221L68.7631 21.6221L67.9313 20.689ZM66.1665 20.5876L65.2333 21.4193H65.2333L66.1665 20.5876ZM55.0669 8.13445L56 7.30273L56 7.30273L55.0669 8.13445ZM108.931 6.3696L109.763 5.43646L109.763 5.43645L108.931 6.3696ZM107.166 6.47102L106.233 5.6393L106.233 5.6393L107.166 6.47102ZM109.033 8.13445L109.966 8.96617V8.96617L109.033 8.13445ZM97.9332 20.5876L98.8663 21.4193L98.8663 21.4193L97.9332 20.5876ZM96.1683 20.689L95.3366 21.6221L95.3366 21.6221L96.1683 20.689ZM96.0669 18.9241L95.1337 18.0924V18.0924L96.0669 18.9241ZM84.5996 3C84.5996 1.61929 83.4803 0.5 82.0996 0.5V3H84.5996ZM84.5996 19.7559V3H82.0996V19.7559H84.5996ZM82.0996 22.2559C83.4803 22.2559 84.5996 21.1366 84.5996 19.7559H82.0996V22.2559ZM79.5996 19.7559C79.5996 21.1366 80.7189 22.2559 82.0996 22.2559V19.7559H79.5996ZM79.5996 3V19.7559H82.0996V3H79.5996ZM82.0996 0.5C80.7189 0.5 79.5996 1.61929 79.5996 3H82.0996V0.5ZM57.8663 5.6393C56.9476 4.60858 55.3673 4.51777 54.3366 5.43646L56 7.30273H56L57.8663 5.6393ZM68.9659 18.0924L57.8663 5.6393L56 7.30273L67.0996 19.7559L68.9659 18.0924ZM68.7631 21.6221C69.7938 20.7034 69.8846 19.1231 68.9659 18.0924L67.0996 19.7559L67.0996 19.7559L68.7631 21.6221ZM65.2333 21.4193C66.152 22.45 67.7323 22.5408 68.7631 21.6221L67.0996 19.7559H67.0996L65.2333 21.4193ZM54.1337 8.96617L65.2333 21.4193L67.0996 19.7559L56 7.30273L54.1337 8.96617ZM54.3366 5.43646C53.3059 6.35515 53.215 7.93545 54.1337 8.96617L56 7.30273L56 7.30273L54.3366 5.43646ZM109.763 5.43645C108.732 4.51777 107.152 4.60858 106.233 5.6393L108.1 7.30274L108.1 7.30274L109.763 5.43645ZM109.966 8.96617C110.885 7.93545 110.794 6.35515 109.763 5.43646L108.1 7.30273V7.30274L109.966 8.96617ZM98.8663 21.4193L109.966 8.96617L108.1 7.30273L97 19.7559L98.8663 21.4193ZM95.3366 21.6221C96.3673 22.5408 97.9476 22.45 98.8663 21.4193L97 19.7559L97 19.7559L95.3366 21.6221ZM95.1337 18.0924C94.215 19.1231 94.3059 20.7034 95.3366 21.6221L97 19.7559L97 19.7559L95.1337 18.0924ZM106.233 5.6393L95.1337 18.0924L97 19.7559L108.1 7.30273L106.233 5.6393Z" fill="#D9D9D9"/>
</svg>
