<svg width="20" height="20" viewBox="0 0 20 20" fill="none" xmlns="http://www.w3.org/2000/svg">
<path d="M9.99998 17C10.946 17 11.81 16.897 12.598 16.719L10.841 14.962C10.568 14.983 10.291 15 9.99998 15C4.64898 15 2.57598 11.154 2.07398 9.99997C2.45093 9.15878 2.96003 8.38331 3.58198 7.70297L2.18398 6.30497C0.645979 7.97197 0.0629789 9.65097 0.0519789 9.68397C-0.0170008 9.88933 -0.0170008 10.1116 0.0519789 10.317C0.0729789 10.383 2.36698 17 9.99998 17ZM9.99998 2.99997C8.16298 2.99997 6.65398 3.39597 5.39598 3.98097L1.70698 0.292969L0.292979 1.70697L18.293 19.707L19.707 18.293L16.388 14.974C19.002 13.023 19.935 10.359 19.949 10.317C20.018 10.1116 20.018 9.88933 19.949 9.68397C19.927 9.61697 17.633 2.99997 9.99998 2.99997ZM14.972 13.558L12.692 11.278C12.882 10.888 13 10.459 13 9.99997C13 8.35897 11.641 6.99997 9.99998 6.99997C9.54098 6.99997 9.11198 7.11797 8.72298 7.30897L6.91498 5.50097C7.9075 5.16038 8.95069 4.99097 9.99998 4.99997C15.351 4.99997 17.424 8.84597 17.926 9.99997C17.624 10.692 16.76 12.342 14.972 13.558Z" fill="black"/>
</svg>
