<svg width="24" height="24" viewBox="0 0 24 24" fill="none" xmlns="http://www.w3.org/2000/svg">
<path d="M12.9995 10.551V9.873C13.8577 9.65053 14.6179 9.14959 15.1608 8.44869C15.7037 7.7478 15.9987 6.88657 15.9995 6C15.9995 3.794 14.2055 2 11.9995 2C9.79353 2 7.99953 3.794 7.99953 6H9.99953C9.99953 4.897 10.8965 4 11.9995 4C13.1025 4 13.9995 4.897 13.9995 6C13.9995 7.103 13.1025 8 11.9995 8C11.7343 8 11.48 8.10536 11.2924 8.29289C11.1049 8.48043 10.9995 8.73478 10.9995 9V10.551L2.33453 18.253C2.18361 18.388 2.0772 18.5657 2.02934 18.7624C1.98147 18.9592 1.99442 19.1659 2.06646 19.3551C2.1385 19.5444 2.26625 19.7073 2.43284 19.8225C2.59943 19.9376 2.79703 19.9995 2.99953 20H20.9995C21.2022 19.9995 21.3999 19.9376 21.5666 19.8223C21.7332 19.707 21.861 19.5439 21.933 19.3545C22.0049 19.165 22.0177 18.9582 21.9696 18.7614C21.9215 18.5645 21.8148 18.3869 21.6635 18.252L12.9995 10.551ZM5.62953 18L11.9995 12.338L18.3695 18H5.62953Z"/>
</svg>
