<svg width="20" height="20" viewBox="0 0 20 20" fill="none" xmlns="http://www.w3.org/2000/svg">
<path d="M9.99977 5C9.13064 5.0011 8.29742 5.34685 7.68286 5.96142C7.06829 6.57599 6.72254 7.4092 6.72144 8.27833H8.3881C8.3881 7.38917 9.11144 6.66667 9.99977 6.66667C10.8881 6.66667 11.6114 7.38917 11.6114 8.27833C11.6114 8.77667 11.2106 9.13833 10.5981 9.63333C10.398 9.79008 10.2058 9.95668 10.0223 10.1325C9.1906 10.9633 9.16644 11.8458 9.16644 11.9442V12.5H10.8331L10.8323 11.9725C10.8331 11.9592 10.8598 11.6508 11.1998 11.3117C11.3248 11.1867 11.4823 11.0617 11.6456 10.93C12.2948 10.4042 13.2773 9.61 13.2773 8.27833C13.2766 7.40921 12.9311 6.57587 12.3166 5.96123C11.7021 5.34659 10.8689 5.00088 9.99977 5ZM9.16644 13.3333H10.8331V15H9.16644V13.3333Z" fill="#999999"/>
<path d="M9.99996 1.66666C5.40496 1.66666 1.66663 5.40499 1.66663 9.99999C1.66663 14.595 5.40496 18.3333 9.99996 18.3333C14.595 18.3333 18.3333 14.595 18.3333 9.99999C18.3333 5.40499 14.595 1.66666 9.99996 1.66666ZM9.99996 16.6667C6.32413 16.6667 3.33329 13.6758 3.33329 9.99999C3.33329 6.32416 6.32413 3.33332 9.99996 3.33332C13.6758 3.33332 16.6666 6.32416 16.6666 9.99999C16.6666 13.6758 13.6758 16.6667 9.99996 16.6667Z" fill="#999999"/>
</svg>
