<svg width="32" height="32" viewBox="0 0 32 32" fill="none" xmlns="http://www.w3.org/2000/svg">
<path d="M12.9178 27.8634C13.1278 27.738 13.3578 27.6307 13.5698 27.4947C13.7518 27.3274 13.9778 27.196 14.1424 26.9987C14.4818 26.6167 14.7824 26.1707 14.9878 25.66C15.4238 24.6474 15.5938 23.4847 15.6971 22.324C15.7844 21.156 15.7331 19.9734 15.7031 18.788C15.6651 17.602 15.6411 16.4054 15.7558 15.2087C15.7671 15.0887 15.8818 15.0254 16.0024 15.0367C16.1204 15.048 16.2864 15.1274 16.2791 15.2447C16.2011 16.412 16.2264 17.59 16.2524 18.772C16.2891 19.9554 16.3291 21.1434 16.3424 22.3447C16.3638 23.5454 16.3044 24.7734 15.9578 26.0034C15.6251 27.2207 14.8584 28.4634 13.6884 29.2274C13.3264 29.464 12.8411 29.362 12.6044 29C12.3678 28.638 12.4698 28.1527 12.8318 27.9167C12.8398 27.9114 12.8484 27.906 12.8564 27.9014L12.9178 27.8634Z" fill="url(#paint0_linear)"/>
<path d="M15.9869 15.6487C16.1614 15.6487 16.3029 15.5072 16.3029 15.3327C16.3029 15.1582 16.1614 15.0167 15.9869 15.0167C15.8124 15.0167 15.6709 15.1582 15.6709 15.3327C15.6709 15.5072 15.8124 15.6487 15.9869 15.6487Z" fill="url(#paint1_radial)"/>
<path d="M14.0495 4.968C12.7588 3.67733 10.6655 3.67733 9.37414 4.968C8.60614 5.736 8.30614 6.78733 8.45214 7.786C7.45414 7.64 6.4028 7.94 5.63414 8.708C4.34347 9.99867 4.34347 12.092 5.63414 13.3833C7.86147 15.6107 13.8788 14.4627 14.6468 14.916C15.0615 15.1607 15.6688 15.5047 15.9195 15.2533C16.1701 15.0027 15.7661 14.42 15.5821 13.9807C15.2248 13.1287 16.2775 7.196 14.0495 4.968Z" fill="url(#paint2_radial)"/>
<path d="M26.4799 16.4307C27.8726 17.6094 28.0459 19.694 26.8672 21.0867C26.1659 21.9154 25.1439 22.3014 24.1372 22.2387C24.3652 23.2207 24.1539 24.2927 23.4526 25.1214C22.2739 26.514 20.1892 26.6874 18.7966 25.5087C16.3939 23.4747 17.0379 17.3874 16.5232 16.66C16.2452 16.2674 15.8526 15.6914 16.0812 15.4207C16.3099 15.15 16.9239 15.504 17.3766 15.6514C18.2552 15.9367 24.0766 14.3967 26.4799 16.4307Z" fill="url(#paint3_radial)"/>
<path d="M5.50768 16.388C4.11035 17.5613 3.92902 19.6453 5.10235 21.0427C5.80035 21.874 6.82102 22.264 7.82768 22.2053C7.59568 23.1867 7.80302 24.2593 8.50102 25.0907C9.67435 26.488 11.7584 26.6693 13.1557 25.496C15.5664 23.4713 14.9457 17.382 15.463 16.6567C15.7424 16.2653 16.1377 15.6907 15.9097 15.4187C15.6817 15.1473 15.067 15.4987 14.6137 15.6447C13.7344 15.926 7.91902 14.3633 5.50768 16.388Z" fill="url(#paint4_radial)"/>
<path d="M17.9501 4.968C19.2408 3.67733 21.3341 3.67733 22.6254 4.968C23.3934 5.736 23.6934 6.78733 23.5474 7.786C24.5454 7.64 25.5968 7.94 26.3654 8.708C27.6561 9.99867 27.6561 12.092 26.3654 13.3833C24.1381 15.6107 18.1208 14.4627 17.3528 14.916C16.9381 15.1607 16.3308 15.5047 16.0801 15.2533C15.8294 15.0027 16.2334 14.42 16.4174 13.9807C16.7748 13.1287 15.7221 7.196 17.9501 4.968Z" fill="url(#paint5_radial)"/>
<defs>
<linearGradient id="paint0_linear" x1="14.1407" y1="29.9081" x2="15.0088" y2="17.1208" gradientUnits="userSpaceOnUse">
<stop offset="0.487" stop-color="#74A333"/>
<stop offset="0.612" stop-color="#6E9B2F"/>
<stop offset="0.806" stop-color="#5D8524"/>
<stop offset="1" stop-color="#476915"/>
</linearGradient>
<radialGradient id="paint1_radial" cx="0" cy="0" r="1" gradientUnits="userSpaceOnUse" gradientTransform="translate(15.9869 15.3327) scale(0.316)">
<stop stop-color="#5B871B"/>
<stop offset="1" stop-color="#5B871B" stop-opacity="0"/>
</radialGradient>
<radialGradient id="paint2_radial" cx="0" cy="0" r="1" gradientUnits="userSpaceOnUse" gradientTransform="translate(-7.0642 30.4507) rotate(-45.001) scale(47.9447)">
<stop offset="0.435" stop-color="#78B324"/>
<stop offset="0.487" stop-color="#76B023"/>
<stop offset="0.521" stop-color="#70A722"/>
<stop offset="0.551" stop-color="#66981F"/>
<stop offset="0.573" stop-color="#6EA321"/>
<stop offset="0.581" stop-color="#6DA121"/>
<stop offset="0.672" stop-color="#608E1C"/>
<stop offset="0.736" stop-color="#5B871B"/>
</radialGradient>
<radialGradient id="paint3_radial" cx="0" cy="0" r="1" gradientUnits="userSpaceOnUse" gradientTransform="translate(2.85298 39.5709) rotate(-49.758) scale(47.9127)">
<stop offset="0.435" stop-color="#78B324"/>
<stop offset="0.487" stop-color="#76B023"/>
<stop offset="0.521" stop-color="#70A722"/>
<stop offset="0.551" stop-color="#66981F"/>
<stop offset="0.573" stop-color="#6EA321"/>
<stop offset="0.581" stop-color="#6DA121"/>
<stop offset="0.672" stop-color="#608E1C"/>
<stop offset="0.736" stop-color="#5B871B"/>
</radialGradient>
<radialGradient id="paint4_radial" cx="0" cy="0" r="1" gradientUnits="userSpaceOnUse" gradientTransform="translate(29.0453 39.6222) rotate(-130.018) scale(47.9127)">
<stop offset="0.435" stop-color="#78B324"/>
<stop offset="0.487" stop-color="#76B023"/>
<stop offset="0.521" stop-color="#70A722"/>
<stop offset="0.551" stop-color="#66981F"/>
<stop offset="0.573" stop-color="#6EA321"/>
<stop offset="0.581" stop-color="#6DA121"/>
<stop offset="0.672" stop-color="#608E1C"/>
<stop offset="0.736" stop-color="#5B871B"/>
</radialGradient>
<radialGradient id="paint5_radial" cx="0" cy="0" r="1" gradientUnits="userSpaceOnUse" gradientTransform="translate(39.0644 30.4506) rotate(-135) scale(47.9447)">
<stop offset="0.435" stop-color="#78B324"/>
<stop offset="0.487" stop-color="#76B023"/>
<stop offset="0.521" stop-color="#70A722"/>
<stop offset="0.551" stop-color="#66981F"/>
<stop offset="0.573" stop-color="#6EA321"/>
<stop offset="0.581" stop-color="#6DA121"/>
<stop offset="0.672" stop-color="#608E1C"/>
<stop offset="0.736" stop-color="#5B871B"/>
</radialGradient>
</defs>
</svg>
