<svg width="38" height="38" viewBox="0 0 38 38" fill="none" xmlns="http://www.w3.org/2000/svg">
<path d="M18.4537 27.1935C18.5279 27.2568 18.6082 27.3202 18.687 27.382C17.121 28.4215 15.2826 28.9752 13.403 28.9734C12.15 28.9744 10.9092 28.7284 9.75142 28.2495C8.59364 27.7706 7.54162 27.0681 6.65553 26.1823C5.76943 25.2965 5.06665 24.2447 4.58736 23.0871C4.10808 21.9295 3.8617 20.6887 3.86231 19.4358C3.86214 17.7102 4.33 16.0168 5.21607 14.536C6.10213 13.0552 7.37321 11.8425 8.89396 11.027C10.4147 10.2114 12.1282 9.8236 13.8519 9.9048C15.5756 9.986 17.245 10.5332 18.6824 11.4881C18.6051 11.5545 18.5279 11.6148 18.4692 11.6827C17.3555 12.6444 16.4619 13.8346 15.8492 15.1724C15.2366 16.5103 14.9192 17.9643 14.9186 19.4358C14.9186 22.41 16.2057 25.2374 18.4537 27.1935ZM25.1917 9.89667C23.3136 9.89302 21.4768 10.4469 19.9138 11.4881C19.9895 11.5545 20.0667 11.6148 20.1255 11.6827C22.3843 13.6341 23.6775 16.4631 23.6775 19.4358C23.6775 22.4085 22.3874 25.2343 20.1424 27.1935C20.0667 27.2568 19.9864 27.3202 19.9091 27.382C21.4739 28.4219 23.3113 28.9756 25.1901 28.9734C26.4529 28.9895 27.7064 28.7548 28.8777 28.2827C30.0491 27.8107 31.1151 27.1108 32.0138 26.2235C32.9126 25.3363 33.6262 24.2794 34.1133 23.1142C34.6004 21.949 34.8513 20.6987 34.8514 19.4358C34.8515 18.1729 34.6008 16.9225 34.1139 15.7573C33.627 14.592 32.9135 13.535 32.0149 12.6476C31.1163 11.7602 30.0505 11.0601 28.8792 10.5879C27.7079 10.1156 26.4545 9.8807 25.1917 9.89667ZM19.2973 11.9423C18.1614 12.833 17.2433 13.9706 16.6126 15.269C15.9818 16.5674 15.6551 17.9923 15.6572 19.4358C15.6542 20.8801 15.9805 22.306 16.6112 23.6053C17.242 24.9045 18.1606 26.0429 19.2973 26.9339C20.4337 26.0425 21.3522 24.9041 21.9831 23.605C22.6141 22.3058 22.941 20.88 22.939 19.4358C22.9411 17.9922 22.6142 16.567 21.9832 15.2686C21.3522 13.9702 20.4337 12.8327 19.2973 11.9423Z" fill="#B3B3B3"/>
</svg>
