<svg width="24" height="24" viewBox="0 0 24 24" fill="none" xmlns="http://www.w3.org/2000/svg">
<path d="M20.9999 9H19.5799L15.8679 2.504L14.1319 3.496L17.2769 9H6.7229L9.8689 3.496L8.1319 2.504L4.4199 9H2.9999C2.84619 9.00017 2.69459 9.03573 2.55685 9.10393C2.4191 9.17213 2.29891 9.27113 2.2056 9.39327C2.11228 9.5154 2.04834 9.65738 2.01874 9.80821C1.98914 9.95904 1.99467 10.1147 2.0349 10.263L4.8339 20.527C4.95025 20.9498 5.20201 21.3228 5.55059 21.5888C5.89918 21.8549 6.32538 21.9993 6.7639 22H17.2369C18.1349 22 18.9289 21.395 19.1669 20.525L21.9659 10.262C22.0066 10.1136 22.0124 9.9578 21.983 9.80677C21.9535 9.65574 21.8895 9.51358 21.7959 9.39138C21.7024 9.26919 21.5819 9.17028 21.4438 9.10239C21.3057 9.03449 21.1538 8.99945 20.9999 9ZM17.2359 20V21V20H6.7639L4.3099 11H19.6899L17.2359 20Z"/>
<path d="M9 13H11V18H9V13ZM13 13H15V18H13V13Z"/>
</svg>
