<svg width="33" height="33" viewBox="0 0 33 33" fill="none" xmlns="http://www.w3.org/2000/svg">
<path d="M26.6929 13.546C26.8543 14.2966 26.8343 15.2073 26.6396 16.2806C25.8636 20.2513 23.3369 22.2353 19.0623 22.2353H18.4729C18.2551 22.234 18.0444 22.3127 17.8809 22.4566C17.7115 22.6034 17.5988 22.8048 17.5623 23.026L17.5076 23.278L16.7703 27.9166L16.7423 28.118C16.7042 28.3407 16.5873 28.5423 16.4129 28.686C16.2484 28.8308 16.0361 28.9096 15.8169 28.9073H12.4529C12.3687 28.9117 12.2847 28.8959 12.2079 28.8611C12.1311 28.8263 12.0638 28.7735 12.0116 28.7073C11.9586 28.6396 11.9205 28.5615 11.8998 28.4781C11.8791 28.3947 11.8763 28.3079 11.8916 28.2233C11.9729 27.726 12.0889 26.9726 12.2476 25.9713C12.4036 24.9713 12.5223 24.2193 12.6036 23.7193C12.6849 23.2193 12.8036 22.4686 12.9663 21.4726C13.1276 20.4753 13.2489 19.726 13.3276 19.226C13.3716 18.8953 13.5663 18.7313 13.9049 18.7313H15.6596C16.8503 18.7486 17.9023 18.6553 18.8263 18.45C20.3889 18.1006 21.6716 17.458 22.6743 16.518C23.5876 15.6686 24.2783 14.5686 24.7543 13.2206C24.9703 12.594 25.1236 11.998 25.2236 11.4366C25.2316 11.382 25.2423 11.3486 25.2569 11.338C25.2676 11.3233 25.2863 11.3193 25.3036 11.3233C25.3326 11.3362 25.3602 11.3518 25.3863 11.37C26.0849 11.9006 26.5249 12.6246 26.6929 13.546ZM24.3889 9.76463C24.3889 10.7206 24.1836 11.7753 23.7689 12.93C23.0529 15.0126 21.7063 16.4206 19.7196 17.154C18.7089 17.5126 17.5836 17.698 16.3396 17.7206C16.3396 17.7286 15.9383 17.73 15.1343 17.73L13.9303 17.7206C13.0343 17.7206 12.5076 18.1473 12.3476 19.006C12.3303 19.0766 11.9503 21.446 11.2076 26.1113C11.1969 26.1993 11.1436 26.2473 11.0463 26.2473H7.09293C6.99977 26.2493 6.90732 26.2305 6.82225 26.1925C6.73718 26.1545 6.66159 26.098 6.60093 26.0273C6.53799 25.9577 6.49153 25.8748 6.46499 25.7848C6.43844 25.6948 6.4325 25.5999 6.4476 25.5073L9.55693 5.78063C9.59676 5.5282 9.72767 5.2991 9.92493 5.13663C10.1173 4.97109 10.3632 4.88106 10.6169 4.8833H18.6356C18.9396 4.8833 19.3756 4.94196 19.9409 5.05796C20.5116 5.16996 21.0089 5.31663 21.4383 5.48596C22.3956 5.8513 23.1263 6.4033 23.6316 7.1353C24.1369 7.87129 24.3889 8.74463 24.3889 9.76463Z" fill="#B3B3B3"/>
</svg>
