<svg width="31" height="14" viewBox="0 0 31 14" fill="none" xmlns="http://www.w3.org/2000/svg">
<path d="M6.29733 4.476C5.84933 3.734 5.06533 3.3 4.05733 3.3C2.26533 3.3 0.781328 4.84 0.781328 7.234C0.781328 9.656 2.26533 11.182 4.05733 11.182C5.06533 11.182 5.84933 10.748 6.29733 10.006V11H7.96333V0.85H6.29733V4.476ZM6.36733 7.234C6.36733 8.97 5.49933 9.824 4.42133 9.824C3.30133 9.824 2.51733 8.858 2.51733 7.234C2.51733 5.652 3.30133 4.658 4.42133 4.658C5.49933 4.658 6.36733 5.498 6.36733 7.234ZM14.5063 8.032C14.5063 9.32 13.7783 9.936 12.5463 9.936C11.7063 9.936 11.1603 9.544 11.1603 8.886C11.1603 8.032 12.1403 7.682 14.5063 7.458V8.032ZM12.1823 11.182C13.3023 11.182 14.1703 10.804 14.6603 9.978C14.7023 10.496 14.7443 10.678 14.8003 11H16.3263C16.1723 10.37 16.1022 9.376 16.1022 8.424C16.1022 7.738 16.1303 6.842 16.1303 6.478C16.1723 4.07 14.7583 3.244 12.9523 3.244C11.1323 3.244 9.85825 4.308 9.74625 5.834H11.3843C11.4263 4.924 12.0563 4.476 12.8963 4.476C13.7363 4.476 14.4643 4.868 14.4643 6.156V6.296C11.7203 6.59 9.39625 7.038 9.39625 8.928C9.39625 10.3 10.5443 11.182 12.1823 11.182ZM18.1402 13.45C19.8342 13.45 20.3242 12.932 21.0382 10.986L23.6842 3.468H21.9762L20.2682 8.872L18.5602 3.468H16.7402L19.4702 10.958L19.3862 11.14C19.0502 12.12 18.7422 12.176 18.0142 12.176H17.3842V13.45H18.1402ZM30.4349 5.526C30.1269 4.014 28.7829 3.3 27.3129 3.3C25.6889 3.3 24.2469 4.154 24.2469 5.484C24.2469 6.87 25.2409 7.416 26.5149 7.682L27.6489 7.906C28.3909 8.06 28.9509 8.326 28.9509 8.942C28.9509 9.558 28.3209 9.922 27.4389 9.922C26.4449 9.922 25.8989 9.488 25.7449 8.704H24.1209C24.3029 10.118 25.5349 11.182 27.3829 11.182C29.0909 11.182 30.5749 10.314 30.5749 8.746C30.5749 7.276 29.4129 6.8 27.8869 6.506L26.8229 6.296C26.1649 6.17 25.8149 5.904 25.8149 5.4C25.8149 4.896 26.4869 4.574 27.2149 4.574C28.0549 4.574 28.6849 4.84 28.8669 5.526H30.4349Z" fill="#737373"/>
</svg>
