<svg width="24" height="24" viewBox="0 0 24 24" fill="none" xmlns="http://www.w3.org/2000/svg">
<path d="M13 19.0001V15.0001H16L12 10.0001L8 15.0001H11V19.0001H13Z" fill="#737373"/>
<path d="M6.99997 18.9999H8.99997V16.9999H6.99997C5.34597 16.9999 3.99997 15.6539 3.99997 13.9999C3.99997 12.5959 5.19897 11.2439 6.67297 10.9849L7.25397 10.8829L7.44597 10.3249C8.14897 8.27394 9.89497 6.99994 12 6.99994C14.757 6.99994 17 9.24294 17 11.9999V12.9999H18C19.103 12.9999 20 13.8969 20 14.9999C20 16.1029 19.103 16.9999 18 16.9999H15V18.9999H18C20.206 18.9999 22 17.2059 22 14.9999C21.9984 14.1035 21.6966 13.2335 21.1427 12.5288C20.5887 11.824 19.8146 11.3252 18.944 11.1119C18.507 7.66994 15.56 4.99994 12 4.99994C9.24397 4.99994 6.84997 6.61094 5.75697 9.14994C3.60897 9.79194 1.99997 11.8199 1.99997 13.9999C1.99997 16.7569 4.24297 18.9999 6.99997 18.9999Z" fill="#737373"/>
</svg>
