<svg width="53" height="54" viewBox="0 0 53 54" fill="none" xmlns="http://www.w3.org/2000/svg">
<path d="M36.5052 21.2246C35.4791 20.8507 34.3945 20.6631 33.3025 20.6705C29.771 20.6705 27.2768 22.4496 27.2592 25.0033C27.2371 26.8794 29.0316 27.9367 30.389 28.5635C31.7817 29.208 32.2475 29.6142 32.243 30.1902C32.2342 31.0665 31.1306 31.4638 30.1043 31.4638C28.6938 31.4638 27.9235 31.2673 26.7383 30.7751L26.299 30.5699L25.798 33.5099C26.6566 33.8674 28.2038 34.1742 29.8019 34.2007C33.5563 34.2007 36.0107 32.4328 36.0394 29.7157C36.0703 28.217 35.0992 27.0847 33.0553 26.1488C31.8126 25.5419 31.0423 25.1357 31.0423 24.5199C31.0423 23.9747 31.7023 23.392 33.0818 23.392C33.9999 23.3698 34.9123 23.5421 35.7591 23.8975L36.0902 24.0454L36.5912 21.2047L36.5052 21.2246ZM45.6695 20.9089H42.9105C42.0519 20.9089 41.4052 21.1451 41.0299 21.9971L35.7238 34.0175H39.4783L40.2287 32.0465L44.8109 32.0509C44.919 32.5122 45.2501 34.0175 45.2501 34.0175H48.5609L45.6695 20.9089ZM22.1804 20.7986H25.7583L23.5202 33.9138H19.9467L22.1804 20.7942V20.7986ZM13.0977 28.0272L13.4685 29.8481L16.9648 20.9089H20.7545L15.1239 33.9999H11.343L8.2529 22.9153C8.20286 22.7325 8.08532 22.5755 7.92403 22.476C6.81028 21.9007 5.63018 21.4641 4.41016 21.176L4.45871 20.9001H10.2173C10.9987 20.931 11.6277 21.176 11.8374 22.0103L13.0955 28.0338V28.0272H13.0977ZM41.2551 29.3647L42.6809 25.6964C42.6633 25.7361 42.9745 24.9393 43.1555 24.4471L43.4005 25.5794L44.2282 29.3625H41.2529V29.3647H41.2551Z" fill="#B3B3B3"/>
</svg>
