<svg width="48" height="48" viewBox="0 0 48 48" fill="none" xmlns="http://www.w3.org/2000/svg">
<path d="M37.648 33.35C37.438 34.802 34.474 38.568 33.11 39.114C32.646 39.3 32.196 39.254 31.836 38.978C31.604 38.798 31.366 38.434 28.17 33.246L27.22 31.7C26.854 31.146 26.924 30.416 27.376 29.86C27.822 29.32 28.474 29.12 29.04 29.336C29.072 29.352 31.43 30.13 31.43 30.13C36.806 31.896 36.98 31.964 37.212 32.134C37.552 32.412 37.71 32.846 37.64 33.35H37.648ZM26.876 25.458C26.496 24.88 26.502 24.198 26.896 23.728L28.388 21.69C31.672 17.22 31.852 16.984 32.074 16.828C32.2668 16.703 32.4898 16.6325 32.7194 16.6241C32.949 16.6156 33.1766 16.6695 33.378 16.78C34.68 17.412 37.31 21.318 37.468 22.818V22.868C37.4963 23.0923 37.463 23.3201 37.3718 23.5269C37.2805 23.7337 37.1348 23.9118 36.95 24.042C36.704 24.2 36.48 24.292 30.368 25.774C29.402 26.02 28.864 26.154 28.548 26.268L28.59 26.222C27.986 26.404 27.31 26.112 26.928 25.508L26.876 25.458ZM23.126 23.14C22.834 23.232 21.944 23.51 20.848 21.736C20.848 21.736 13.46 10.11 13.288 9.75205C13.182 9.35005 13.31 8.89405 13.668 8.52605C14.768 7.38805 20.736 5.71605 22.298 6.09605C22.808 6.22805 23.158 6.55005 23.28 7.00205C23.37 7.50205 24.096 18.294 24.2 20.71C24.302 22.778 23.416 23.052 23.126 23.14ZM24.1 34.966C24.084 40.62 24.07 40.81 23.978 41.078C23.82 41.5 23.458 41.782 22.958 41.874C21.518 42.118 17.014 40.454 16.076 39.34C15.905 39.1271 15.7963 38.871 15.762 38.6C15.736 38.42 15.762 38.24 15.828 38.082C15.942 37.79 16.098 37.564 20.144 32.822L21.332 31.41C21.738 30.89 22.458 30.734 23.13 31.002C23.78 31.25 24.186 31.812 24.142 32.418V34.936L24.1 34.966ZM11.84 31.35C11.396 31.338 11 31.07 10.77 30.634C10.604 30.31 10.486 29.778 10.41 29.13C10.206 27.182 10.456 24.242 11.038 23.308C11.314 22.88 11.714 22.654 12.156 22.67C12.448 22.67 12.708 22.762 18.49 25.142L20.186 25.816C20.79 26.038 21.164 26.67 21.13 27.39C21.086 28.086 20.682 28.622 20.088 28.782L17.684 29.546C12.306 31.274 12.128 31.322 11.846 31.3L11.84 31.35ZM34.28 41.994H34.272L34.266 42L34.28 41.994Z" fill="#1CA0CA"/>
</svg>
